<?xml version="1.0" encoding="utf-8" standalone="no"?>
<!DOCTYPE svg PUBLIC "-//W3C//DTD SVG 1.1//EN"
  "http://www.w3.org/Graphics/SVG/1.1/DTD/svg11.dtd">
<svg xmlns:xlink="http://www.w3.org/1999/xlink" width="713.586875pt" height="425.049687pt" viewBox="0 0 713.586875 425.049687" xmlns="http://www.w3.org/2000/svg" version="1.1">
 <metadata>
  <rdf:RDF xmlns:dc="http://purl.org/dc/elements/1.1/" xmlns:cc="http://creativecommons.org/ns#" xmlns:rdf="http://www.w3.org/1999/02/22-rdf-syntax-ns#">
   <cc:Work>
    <dc:type rdf:resource="http://purl.org/dc/dcmitype/StillImage"/>
    <dc:date>2026-01-22T15:33:42.914964</dc:date>
    <dc:format>image/svg+xml</dc:format>
    <dc:creator>
     <cc:Agent>
      <dc:title>Matplotlib v3.5.1, https://matplotlib.org/</dc:title>
     </cc:Agent>
    </dc:creator>
   </cc:Work>
  </rdf:RDF>
 </metadata>
 <defs>
  <style type="text/css">*{stroke-linejoin: round; stroke-linecap: butt}</style>
 </defs>
 <g id="figure_1">
  <g id="patch_1">
   <path d="M 0 425.049687 
L 713.586875 425.049687 
L 713.586875 0 
L 0 0 
z
" style="fill: #ffffff"/>
  </g>
  <g id="axes_1">
   <g id="patch_2">
    <path d="M 45.716875 385.557812 
L 706.386875 385.557812 
L 706.386875 23.837812 
L 45.716875 23.837812 
z
" style="fill: #ffffff"/>
   </g>
   <g id="matplotlib.axis_1">
    <g id="xtick_1">
     <g id="text_1">
      <!-- No VLM -->
      <g style="fill: #262626" transform="translate(109.39125 400.15625)scale(0.1 -0.1)">
       <defs>
        <path id="DejaVuSans-4e" d="M 628 4666 
L 1478 4666 
L 3547 763 
L 3547 4666 
L 4159 4666 
L 4159 0 
L 3309 0 
L 1241 3903 
L 1241 0 
L 628 0 
L 628 4666 
z
" transform="scale(0.015625)"/>
        <path id="DejaVuSans-6f" d="M 1959 3097 
Q 1497 3097 1228 2736 
Q 959 2375 959 1747 
Q 959 1119 1226 758 
Q 1494 397 1959 397 
Q 2419 397 2687 759 
Q 2956 1122 2956 1747 
Q 2956 2369 2687 2733 
Q 2419 3097 1959 3097 
z
M 1959 3584 
Q 2709 3584 3137 3096 
Q 3566 2609 3566 1747 
Q 3566 888 3137 398 
Q 2709 -91 1959 -91 
Q 1206 -91 779 398 
Q 353 888 353 1747 
Q 353 2609 779 3096 
Q 1206 3584 1959 3584 
z
" transform="scale(0.015625)"/>
        <path id="DejaVuSans-20" transform="scale(0.015625)"/>
        <path id="DejaVuSans-56" d="M 1831 0 
L 50 4666 
L 709 4666 
L 2188 738 
L 3669 4666 
L 4325 4666 
L 2547 0 
L 1831 0 
z
" transform="scale(0.015625)"/>
        <path id="DejaVuSans-4c" d="M 628 4666 
L 1259 4666 
L 1259 531 
L 3531 531 
L 3531 0 
L 628 0 
L 628 4666 
z
" transform="scale(0.015625)"/>
        <path id="DejaVuSans-4d" d="M 628 4666 
L 1569 4666 
L 2759 1491 
L 3956 4666 
L 4897 4666 
L 4897 0 
L 4281 0 
L 4281 4097 
L 3078 897 
L 2444 897 
L 1241 4097 
L 1241 0 
L 628 0 
L 628 4666 
z
" transform="scale(0.015625)"/>
       </defs>
       <use xlink:href="#DejaVuSans-4e"/>
       <use xlink:href="#DejaVuSans-6f" x="74.804688"/>
       <use xlink:href="#DejaVuSans-20" x="135.986328"/>
       <use xlink:href="#DejaVuSans-56" x="167.773438"/>
       <use xlink:href="#DejaVuSans-4c" x="236.181641"/>
       <use xlink:href="#DejaVuSans-4d" x="291.894531"/>
      </g>
     </g>
    </g>
    <g id="xtick_2">
     <g id="text_2">
      <!-- Local VLM -->
      <g style="fill: #262626" transform="translate(268.398594 400.15625)scale(0.1 -0.1)">
       <defs>
        <path id="DejaVuSans-63" d="M 3122 3366 
L 3122 2828 
Q 2878 2963 2633 3030 
Q 2388 3097 2138 3097 
Q 1578 3097 1268 2742 
Q 959 2388 959 1747 
Q 959 1106 1268 751 
Q 1578 397 2138 397 
Q 2388 397 2633 464 
Q 2878 531 3122 666 
L 3122 134 
Q 2881 22 2623 -34 
Q 2366 -91 2075 -91 
Q 1284 -91 818 406 
Q 353 903 353 1747 
Q 353 2603 823 3093 
Q 1294 3584 2113 3584 
Q 2378 3584 2631 3529 
Q 2884 3475 3122 3366 
z
" transform="scale(0.015625)"/>
        <path id="DejaVuSans-61" d="M 2194 1759 
Q 1497 1759 1228 1600 
Q 959 1441 959 1056 
Q 959 750 1161 570 
Q 1363 391 1709 391 
Q 2188 391 2477 730 
Q 2766 1069 2766 1631 
L 2766 1759 
L 2194 1759 
z
M 3341 1997 
L 3341 0 
L 2766 0 
L 2766 531 
Q 2569 213 2275 61 
Q 1981 -91 1556 -91 
Q 1019 -91 701 211 
Q 384 513 384 1019 
Q 384 1609 779 1909 
Q 1175 2209 1959 2209 
L 2766 2209 
L 2766 2266 
Q 2766 2663 2505 2880 
Q 2244 3097 1772 3097 
Q 1472 3097 1187 3025 
Q 903 2953 641 2809 
L 641 3341 
Q 956 3463 1253 3523 
Q 1550 3584 1831 3584 
Q 2591 3584 2966 3190 
Q 3341 2797 3341 1997 
z
" transform="scale(0.015625)"/>
        <path id="DejaVuSans-6c" d="M 603 4863 
L 1178 4863 
L 1178 0 
L 603 0 
L 603 4863 
z
" transform="scale(0.015625)"/>
       </defs>
       <use xlink:href="#DejaVuSans-4c"/>
       <use xlink:href="#DejaVuSans-6f" x="53.962891"/>
       <use xlink:href="#DejaVuSans-63" x="115.144531"/>
       <use xlink:href="#DejaVuSans-61" x="170.125"/>
       <use xlink:href="#DejaVuSans-6c" x="231.404297"/>
       <use xlink:href="#DejaVuSans-20" x="259.1875"/>
       <use xlink:href="#DejaVuSans-56" x="290.974609"/>
       <use xlink:href="#DejaVuSans-4c" x="359.382812"/>
       <use xlink:href="#DejaVuSans-4d" x="415.095703"/>
      </g>
     </g>
    </g>
    <g id="xtick_3">
     <g id="text_3">
      <!-- Cloud VLM -->
      <g style="fill: #262626" transform="translate(432.243438 400.15625)scale(0.1 -0.1)">
       <defs>
        <path id="DejaVuSans-43" d="M 4122 4306 
L 4122 3641 
Q 3803 3938 3442 4084 
Q 3081 4231 2675 4231 
Q 1875 4231 1450 3742 
Q 1025 3253 1025 2328 
Q 1025 1406 1450 917 
Q 1875 428 2675 428 
Q 3081 428 3442 575 
Q 3803 722 4122 1019 
L 4122 359 
Q 3791 134 3420 21 
Q 3050 -91 2638 -91 
Q 1578 -91 968 557 
Q 359 1206 359 2328 
Q 359 3453 968 4101 
Q 1578 4750 2638 4750 
Q 3056 4750 3426 4639 
Q 3797 4528 4122 4306 
z
" transform="scale(0.015625)"/>
        <path id="DejaVuSans-75" d="M 544 1381 
L 544 3500 
L 1119 3500 
L 1119 1403 
Q 1119 906 1312 657 
Q 1506 409 1894 409 
Q 2359 409 2629 706 
Q 2900 1003 2900 1516 
L 2900 3500 
L 3475 3500 
L 3475 0 
L 2900 0 
L 2900 538 
Q 2691 219 2414 64 
Q 2138 -91 1772 -91 
Q 1169 -91 856 284 
Q 544 659 544 1381 
z
M 1991 3584 
L 1991 3584 
z
" transform="scale(0.015625)"/>
        <path id="DejaVuSans-64" d="M 2906 2969 
L 2906 4863 
L 3481 4863 
L 3481 0 
L 2906 0 
L 2906 525 
Q 2725 213 2448 61 
Q 2172 -91 1784 -91 
Q 1150 -91 751 415 
Q 353 922 353 1747 
Q 353 2572 751 3078 
Q 1150 3584 1784 3584 
Q 2172 3584 2448 3432 
Q 2725 3281 2906 2969 
z
M 947 1747 
Q 947 1113 1208 752 
Q 1469 391 1925 391 
Q 2381 391 2643 752 
Q 2906 1113 2906 1747 
Q 2906 2381 2643 2742 
Q 2381 3103 1925 3103 
Q 1469 3103 1208 2742 
Q 947 2381 947 1747 
z
" transform="scale(0.015625)"/>
       </defs>
       <use xlink:href="#DejaVuSans-43"/>
       <use xlink:href="#DejaVuSans-6c" x="69.824219"/>
       <use xlink:href="#DejaVuSans-6f" x="97.607422"/>
       <use xlink:href="#DejaVuSans-75" x="158.789062"/>
       <use xlink:href="#DejaVuSans-64" x="222.167969"/>
       <use xlink:href="#DejaVuSans-20" x="285.644531"/>
       <use xlink:href="#DejaVuSans-56" x="317.431641"/>
       <use xlink:href="#DejaVuSans-4c" x="385.839844"/>
       <use xlink:href="#DejaVuSans-4d" x="441.552734"/>
      </g>
     </g>
    </g>
    <g id="xtick_4">
     <g id="text_4">
      <!-- No Tracking -->
      <g style="fill: #262626" transform="translate(594.601563 400.15625)scale(0.1 -0.1)">
       <defs>
        <path id="DejaVuSans-54" d="M -19 4666 
L 3928 4666 
L 3928 4134 
L 2272 4134 
L 2272 0 
L 1638 0 
L 1638 4134 
L -19 4134 
L -19 4666 
z
" transform="scale(0.015625)"/>
        <path id="DejaVuSans-72" d="M 2631 2963 
Q 2534 3019 2420 3045 
Q 2306 3072 2169 3072 
Q 1681 3072 1420 2755 
Q 1159 2438 1159 1844 
L 1159 0 
L 581 0 
L 581 3500 
L 1159 3500 
L 1159 2956 
Q 1341 3275 1631 3429 
Q 1922 3584 2338 3584 
Q 2397 3584 2469 3576 
Q 2541 3569 2628 3553 
L 2631 2963 
z
" transform="scale(0.015625)"/>
        <path id="DejaVuSans-6b" d="M 581 4863 
L 1159 4863 
L 1159 1991 
L 2875 3500 
L 3609 3500 
L 1753 1863 
L 3688 0 
L 2938 0 
L 1159 1709 
L 1159 0 
L 581 0 
L 581 4863 
z
" transform="scale(0.015625)"/>
        <path id="DejaVuSans-69" d="M 603 3500 
L 1178 3500 
L 1178 0 
L 603 0 
L 603 3500 
z
M 603 4863 
L 1178 4863 
L 1178 4134 
L 603 4134 
L 603 4863 
z
" transform="scale(0.015625)"/>
        <path id="DejaVuSans-6e" d="M 3513 2113 
L 3513 0 
L 2938 0 
L 2938 2094 
Q 2938 2591 2744 2837 
Q 2550 3084 2163 3084 
Q 1697 3084 1428 2787 
Q 1159 2491 1159 1978 
L 1159 0 
L 581 0 
L 581 3500 
L 1159 3500 
L 1159 2956 
Q 1366 3272 1645 3428 
Q 1925 3584 2291 3584 
Q 2894 3584 3203 3211 
Q 3513 2838 3513 2113 
z
" transform="scale(0.015625)"/>
        <path id="DejaVuSans-67" d="M 2906 1791 
Q 2906 2416 2648 2759 
Q 2391 3103 1925 3103 
Q 1463 3103 1205 2759 
Q 947 2416 947 1791 
Q 947 1169 1205 825 
Q 1463 481 1925 481 
Q 2391 481 2648 825 
Q 2906 1169 2906 1791 
z
M 3481 434 
Q 3481 -459 3084 -895 
Q 2688 -1331 1869 -1331 
Q 1566 -1331 1297 -1286 
Q 1028 -1241 775 -1147 
L 775 -588 
Q 1028 -725 1275 -790 
Q 1522 -856 1778 -856 
Q 2344 -856 2625 -561 
Q 2906 -266 2906 331 
L 2906 616 
Q 2728 306 2450 153 
Q 2172 0 1784 0 
Q 1141 0 747 490 
Q 353 981 353 1791 
Q 353 2603 747 3093 
Q 1141 3584 1784 3584 
Q 2172 3584 2450 3431 
Q 2728 3278 2906 2969 
L 2906 3500 
L 3481 3500 
L 3481 434 
z
" transform="scale(0.015625)"/>
       </defs>
       <use xlink:href="#DejaVuSans-4e"/>
       <use xlink:href="#DejaVuSans-6f" x="74.804688"/>
       <use xlink:href="#DejaVuSans-20" x="135.986328"/>
       <use xlink:href="#DejaVuSans-54" x="167.773438"/>
       <use xlink:href="#DejaVuSans-72" x="214.107422"/>
       <use xlink:href="#DejaVuSans-61" x="255.220703"/>
       <use xlink:href="#DejaVuSans-63" x="316.5"/>
       <use xlink:href="#DejaVuSans-6b" x="371.480469"/>
       <use xlink:href="#DejaVuSans-69" x="429.390625"/>
       <use xlink:href="#DejaVuSans-6e" x="457.173828"/>
       <use xlink:href="#DejaVuSans-67" x="520.552734"/>
      </g>
     </g>
    </g>
    <g id="text_5">
     <!-- Experiment -->
     <g style="fill: #262626" transform="translate(341.384063 415.354062)scale(0.12 -0.12)">
      <defs>
       <path id="DejaVuSans-45" d="M 628 4666 
L 3578 4666 
L 3578 4134 
L 1259 4134 
L 1259 2753 
L 3481 2753 
L 3481 2222 
L 1259 2222 
L 1259 531 
L 3634 531 
L 3634 0 
L 628 0 
L 628 4666 
z
" transform="scale(0.015625)"/>
       <path id="DejaVuSans-78" d="M 3513 3500 
L 2247 1797 
L 3578 0 
L 2900 0 
L 1881 1375 
L 863 0 
L 184 0 
L 1544 1831 
L 300 3500 
L 978 3500 
L 1906 2253 
L 2834 3500 
L 3513 3500 
z
" transform="scale(0.015625)"/>
       <path id="DejaVuSans-70" d="M 1159 525 
L 1159 -1331 
L 581 -1331 
L 581 3500 
L 1159 3500 
L 1159 2969 
Q 1341 3281 1617 3432 
Q 1894 3584 2278 3584 
Q 2916 3584 3314 3078 
Q 3713 2572 3713 1747 
Q 3713 922 3314 415 
Q 2916 -91 2278 -91 
Q 1894 -91 1617 61 
Q 1341 213 1159 525 
z
M 3116 1747 
Q 3116 2381 2855 2742 
Q 2594 3103 2138 3103 
Q 1681 3103 1420 2742 
Q 1159 2381 1159 1747 
Q 1159 1113 1420 752 
Q 1681 391 2138 391 
Q 2594 391 2855 752 
Q 3116 1113 3116 1747 
z
" transform="scale(0.015625)"/>
       <path id="DejaVuSans-65" d="M 3597 1894 
L 3597 1613 
L 953 1613 
Q 991 1019 1311 708 
Q 1631 397 2203 397 
Q 2534 397 2845 478 
Q 3156 559 3463 722 
L 3463 178 
Q 3153 47 2828 -22 
Q 2503 -91 2169 -91 
Q 1331 -91 842 396 
Q 353 884 353 1716 
Q 353 2575 817 3079 
Q 1281 3584 2069 3584 
Q 2775 3584 3186 3129 
Q 3597 2675 3597 1894 
z
M 3022 2063 
Q 3016 2534 2758 2815 
Q 2500 3097 2075 3097 
Q 1594 3097 1305 2825 
Q 1016 2553 972 2059 
L 3022 2063 
z
" transform="scale(0.015625)"/>
       <path id="DejaVuSans-6d" d="M 3328 2828 
Q 3544 3216 3844 3400 
Q 4144 3584 4550 3584 
Q 5097 3584 5394 3201 
Q 5691 2819 5691 2113 
L 5691 0 
L 5113 0 
L 5113 2094 
Q 5113 2597 4934 2840 
Q 4756 3084 4391 3084 
Q 3944 3084 3684 2787 
Q 3425 2491 3425 1978 
L 3425 0 
L 2847 0 
L 2847 2094 
Q 2847 2600 2669 2842 
Q 2491 3084 2119 3084 
Q 1678 3084 1418 2786 
Q 1159 2488 1159 1978 
L 1159 0 
L 581 0 
L 581 3500 
L 1159 3500 
L 1159 2956 
Q 1356 3278 1631 3431 
Q 1906 3584 2284 3584 
Q 2666 3584 2933 3390 
Q 3200 3197 3328 2828 
z
" transform="scale(0.015625)"/>
       <path id="DejaVuSans-74" d="M 1172 4494 
L 1172 3500 
L 2356 3500 
L 2356 3053 
L 1172 3053 
L 1172 1153 
Q 1172 725 1289 603 
Q 1406 481 1766 481 
L 2356 481 
L 2356 0 
L 1766 0 
Q 1100 0 847 248 
Q 594 497 594 1153 
L 594 3053 
L 172 3053 
L 172 3500 
L 594 3500 
L 594 4494 
L 1172 4494 
z
" transform="scale(0.015625)"/>
      </defs>
      <use xlink:href="#DejaVuSans-45"/>
      <use xlink:href="#DejaVuSans-78" x="63.183594"/>
      <use xlink:href="#DejaVuSans-70" x="122.363281"/>
      <use xlink:href="#DejaVuSans-65" x="185.839844"/>
      <use xlink:href="#DejaVuSans-72" x="247.363281"/>
      <use xlink:href="#DejaVuSans-69" x="288.476562"/>
      <use xlink:href="#DejaVuSans-6d" x="316.259766"/>
      <use xlink:href="#DejaVuSans-65" x="413.671875"/>
      <use xlink:href="#DejaVuSans-6e" x="475.195312"/>
      <use xlink:href="#DejaVuSans-74" x="538.574219"/>
     </g>
    </g>
   </g>
   <g id="matplotlib.axis_2">
    <g id="ytick_1">
     <g id="line2d_1">
      <path d="M 45.716875 369.119136 
L 706.386875 369.119136 
" clip-path="url(#pd6e48315f0)" style="fill: none; stroke: #cccccc; stroke-opacity: 0.3; stroke-width: 0.8; stroke-linecap: round"/>
     </g>
     <g id="text_6">
      <!-- 0.0 -->
      <g style="fill: #262626" transform="translate(22.81375 372.918355)scale(0.1 -0.1)">
       <defs>
        <path id="DejaVuSans-30" d="M 2034 4250 
Q 1547 4250 1301 3770 
Q 1056 3291 1056 2328 
Q 1056 1369 1301 889 
Q 1547 409 2034 409 
Q 2525 409 2770 889 
Q 3016 1369 3016 2328 
Q 3016 3291 2770 3770 
Q 2525 4250 2034 4250 
z
M 2034 4750 
Q 2819 4750 3233 4129 
Q 3647 3509 3647 2328 
Q 3647 1150 3233 529 
Q 2819 -91 2034 -91 
Q 1250 -91 836 529 
Q 422 1150 422 2328 
Q 422 3509 836 4129 
Q 1250 4750 2034 4750 
z
" transform="scale(0.015625)"/>
        <path id="DejaVuSans-2e" d="M 684 794 
L 1344 794 
L 1344 0 
L 684 0 
L 684 794 
z
" transform="scale(0.015625)"/>
       </defs>
       <use xlink:href="#DejaVuSans-30"/>
       <use xlink:href="#DejaVuSans-2e" x="63.623047"/>
       <use xlink:href="#DejaVuSans-30" x="95.410156"/>
      </g>
     </g>
    </g>
    <g id="ytick_2">
     <g id="line2d_2">
      <path d="M 45.716875 304.874361 
L 706.386875 304.874361 
" clip-path="url(#pd6e48315f0)" style="fill: none; stroke: #cccccc; stroke-opacity: 0.3; stroke-width: 0.8; stroke-linecap: round"/>
     </g>
     <g id="text_7">
      <!-- 0.1 -->
      <g style="fill: #262626" transform="translate(22.81375 308.673579)scale(0.1 -0.1)">
       <defs>
        <path id="DejaVuSans-31" d="M 794 531 
L 1825 531 
L 1825 4091 
L 703 3866 
L 703 4441 
L 1819 4666 
L 2450 4666 
L 2450 531 
L 3481 531 
L 3481 0 
L 794 0 
L 794 531 
z
" transform="scale(0.015625)"/>
       </defs>
       <use xlink:href="#DejaVuSans-30"/>
       <use xlink:href="#DejaVuSans-2e" x="63.623047"/>
       <use xlink:href="#DejaVuSans-31" x="95.410156"/>
      </g>
     </g>
    </g>
    <g id="ytick_3">
     <g id="line2d_3">
      <path d="M 45.716875 240.629585 
L 706.386875 240.629585 
" clip-path="url(#pd6e48315f0)" style="fill: none; stroke: #cccccc; stroke-opacity: 0.3; stroke-width: 0.8; stroke-linecap: round"/>
     </g>
     <g id="text_8">
      <!-- 0.2 -->
      <g style="fill: #262626" transform="translate(22.81375 244.428804)scale(0.1 -0.1)">
       <defs>
        <path id="DejaVuSans-32" d="M 1228 531 
L 3431 531 
L 3431 0 
L 469 0 
L 469 531 
Q 828 903 1448 1529 
Q 2069 2156 2228 2338 
Q 2531 2678 2651 2914 
Q 2772 3150 2772 3378 
Q 2772 3750 2511 3984 
Q 2250 4219 1831 4219 
Q 1534 4219 1204 4116 
Q 875 4013 500 3803 
L 500 4441 
Q 881 4594 1212 4672 
Q 1544 4750 1819 4750 
Q 2544 4750 2975 4387 
Q 3406 4025 3406 3419 
Q 3406 3131 3298 2873 
Q 3191 2616 2906 2266 
Q 2828 2175 2409 1742 
Q 1991 1309 1228 531 
z
" transform="scale(0.015625)"/>
       </defs>
       <use xlink:href="#DejaVuSans-30"/>
       <use xlink:href="#DejaVuSans-2e" x="63.623047"/>
       <use xlink:href="#DejaVuSans-32" x="95.410156"/>
      </g>
     </g>
    </g>
    <g id="ytick_4">
     <g id="line2d_4">
      <path d="M 45.716875 176.38481 
L 706.386875 176.38481 
" clip-path="url(#pd6e48315f0)" style="fill: none; stroke: #cccccc; stroke-opacity: 0.3; stroke-width: 0.8; stroke-linecap: round"/>
     </g>
     <g id="text_9">
      <!-- 0.3 -->
      <g style="fill: #262626" transform="translate(22.81375 180.184029)scale(0.1 -0.1)">
       <defs>
        <path id="DejaVuSans-33" d="M 2597 2516 
Q 3050 2419 3304 2112 
Q 3559 1806 3559 1356 
Q 3559 666 3084 287 
Q 2609 -91 1734 -91 
Q 1441 -91 1130 -33 
Q 819 25 488 141 
L 488 750 
Q 750 597 1062 519 
Q 1375 441 1716 441 
Q 2309 441 2620 675 
Q 2931 909 2931 1356 
Q 2931 1769 2642 2001 
Q 2353 2234 1838 2234 
L 1294 2234 
L 1294 2753 
L 1863 2753 
Q 2328 2753 2575 2939 
Q 2822 3125 2822 3475 
Q 2822 3834 2567 4026 
Q 2313 4219 1838 4219 
Q 1578 4219 1281 4162 
Q 984 4106 628 3988 
L 628 4550 
Q 988 4650 1302 4700 
Q 1616 4750 1894 4750 
Q 2613 4750 3031 4423 
Q 3450 4097 3450 3541 
Q 3450 3153 3228 2886 
Q 3006 2619 2597 2516 
z
" transform="scale(0.015625)"/>
       </defs>
       <use xlink:href="#DejaVuSans-30"/>
       <use xlink:href="#DejaVuSans-2e" x="63.623047"/>
       <use xlink:href="#DejaVuSans-33" x="95.410156"/>
      </g>
     </g>
    </g>
    <g id="ytick_5">
     <g id="line2d_5">
      <path d="M 45.716875 112.140035 
L 706.386875 112.140035 
" clip-path="url(#pd6e48315f0)" style="fill: none; stroke: #cccccc; stroke-opacity: 0.3; stroke-width: 0.8; stroke-linecap: round"/>
     </g>
     <g id="text_10">
      <!-- 0.4 -->
      <g style="fill: #262626" transform="translate(22.81375 115.939253)scale(0.1 -0.1)">
       <defs>
        <path id="DejaVuSans-34" d="M 2419 4116 
L 825 1625 
L 2419 1625 
L 2419 4116 
z
M 2253 4666 
L 3047 4666 
L 3047 1625 
L 3713 1625 
L 3713 1100 
L 3047 1100 
L 3047 0 
L 2419 0 
L 2419 1100 
L 313 1100 
L 313 1709 
L 2253 4666 
z
" transform="scale(0.015625)"/>
       </defs>
       <use xlink:href="#DejaVuSans-30"/>
       <use xlink:href="#DejaVuSans-2e" x="63.623047"/>
       <use xlink:href="#DejaVuSans-34" x="95.410156"/>
      </g>
     </g>
    </g>
    <g id="ytick_6">
     <g id="line2d_6">
      <path d="M 45.716875 47.895259 
L 706.386875 47.895259 
" clip-path="url(#pd6e48315f0)" style="fill: none; stroke: #cccccc; stroke-opacity: 0.3; stroke-width: 0.8; stroke-linecap: round"/>
     </g>
     <g id="text_11">
      <!-- 0.5 -->
      <g style="fill: #262626" transform="translate(22.81375 51.694478)scale(0.1 -0.1)">
       <defs>
        <path id="DejaVuSans-35" d="M 691 4666 
L 3169 4666 
L 3169 4134 
L 1269 4134 
L 1269 2991 
Q 1406 3038 1543 3061 
Q 1681 3084 1819 3084 
Q 2600 3084 3056 2656 
Q 3513 2228 3513 1497 
Q 3513 744 3044 326 
Q 2575 -91 1722 -91 
Q 1428 -91 1123 -41 
Q 819 9 494 109 
L 494 744 
Q 775 591 1075 516 
Q 1375 441 1709 441 
Q 2250 441 2565 725 
Q 2881 1009 2881 1497 
Q 2881 1984 2565 2268 
Q 2250 2553 1709 2553 
Q 1456 2553 1204 2497 
Q 953 2441 691 2322 
L 691 4666 
z
" transform="scale(0.015625)"/>
       </defs>
       <use xlink:href="#DejaVuSans-30"/>
       <use xlink:href="#DejaVuSans-2e" x="63.623047"/>
       <use xlink:href="#DejaVuSans-35" x="95.410156"/>
      </g>
     </g>
    </g>
    <g id="text_12">
     <!-- Robot Velocity at Collision (m/s) -->
     <g style="fill: #262626" transform="translate(16.318125 300.096875)rotate(-90)scale(0.12 -0.12)">
      <defs>
       <path id="DejaVuSans-52" d="M 2841 2188 
Q 3044 2119 3236 1894 
Q 3428 1669 3622 1275 
L 4263 0 
L 3584 0 
L 2988 1197 
Q 2756 1666 2539 1819 
Q 2322 1972 1947 1972 
L 1259 1972 
L 1259 0 
L 628 0 
L 628 4666 
L 2053 4666 
Q 2853 4666 3247 4331 
Q 3641 3997 3641 3322 
Q 3641 2881 3436 2590 
Q 3231 2300 2841 2188 
z
M 1259 4147 
L 1259 2491 
L 2053 2491 
Q 2509 2491 2742 2702 
Q 2975 2913 2975 3322 
Q 2975 3731 2742 3939 
Q 2509 4147 2053 4147 
L 1259 4147 
z
" transform="scale(0.015625)"/>
       <path id="DejaVuSans-62" d="M 3116 1747 
Q 3116 2381 2855 2742 
Q 2594 3103 2138 3103 
Q 1681 3103 1420 2742 
Q 1159 2381 1159 1747 
Q 1159 1113 1420 752 
Q 1681 391 2138 391 
Q 2594 391 2855 752 
Q 3116 1113 3116 1747 
z
M 1159 2969 
Q 1341 3281 1617 3432 
Q 1894 3584 2278 3584 
Q 2916 3584 3314 3078 
Q 3713 2572 3713 1747 
Q 3713 922 3314 415 
Q 2916 -91 2278 -91 
Q 1894 -91 1617 61 
Q 1341 213 1159 525 
L 1159 0 
L 581 0 
L 581 4863 
L 1159 4863 
L 1159 2969 
z
" transform="scale(0.015625)"/>
       <path id="DejaVuSans-79" d="M 2059 -325 
Q 1816 -950 1584 -1140 
Q 1353 -1331 966 -1331 
L 506 -1331 
L 506 -850 
L 844 -850 
Q 1081 -850 1212 -737 
Q 1344 -625 1503 -206 
L 1606 56 
L 191 3500 
L 800 3500 
L 1894 763 
L 2988 3500 
L 3597 3500 
L 2059 -325 
z
" transform="scale(0.015625)"/>
       <path id="DejaVuSans-73" d="M 2834 3397 
L 2834 2853 
Q 2591 2978 2328 3040 
Q 2066 3103 1784 3103 
Q 1356 3103 1142 2972 
Q 928 2841 928 2578 
Q 928 2378 1081 2264 
Q 1234 2150 1697 2047 
L 1894 2003 
Q 2506 1872 2764 1633 
Q 3022 1394 3022 966 
Q 3022 478 2636 193 
Q 2250 -91 1575 -91 
Q 1294 -91 989 -36 
Q 684 19 347 128 
L 347 722 
Q 666 556 975 473 
Q 1284 391 1588 391 
Q 1994 391 2212 530 
Q 2431 669 2431 922 
Q 2431 1156 2273 1281 
Q 2116 1406 1581 1522 
L 1381 1569 
Q 847 1681 609 1914 
Q 372 2147 372 2553 
Q 372 3047 722 3315 
Q 1072 3584 1716 3584 
Q 2034 3584 2315 3537 
Q 2597 3491 2834 3397 
z
" transform="scale(0.015625)"/>
       <path id="DejaVuSans-28" d="M 1984 4856 
Q 1566 4138 1362 3434 
Q 1159 2731 1159 2009 
Q 1159 1288 1364 580 
Q 1569 -128 1984 -844 
L 1484 -844 
Q 1016 -109 783 600 
Q 550 1309 550 2009 
Q 550 2706 781 3412 
Q 1013 4119 1484 4856 
L 1984 4856 
z
" transform="scale(0.015625)"/>
       <path id="DejaVuSans-2f" d="M 1625 4666 
L 2156 4666 
L 531 -594 
L 0 -594 
L 1625 4666 
z
" transform="scale(0.015625)"/>
       <path id="DejaVuSans-29" d="M 513 4856 
L 1013 4856 
Q 1481 4119 1714 3412 
Q 1947 2706 1947 2009 
Q 1947 1309 1714 600 
Q 1481 -109 1013 -844 
L 513 -844 
Q 928 -128 1133 580 
Q 1338 1288 1338 2009 
Q 1338 2731 1133 3434 
Q 928 4138 513 4856 
z
" transform="scale(0.015625)"/>
      </defs>
      <use xlink:href="#DejaVuSans-52"/>
      <use xlink:href="#DejaVuSans-6f" x="64.982422"/>
      <use xlink:href="#DejaVuSans-62" x="126.164062"/>
      <use xlink:href="#DejaVuSans-6f" x="189.640625"/>
      <use xlink:href="#DejaVuSans-74" x="250.822266"/>
      <use xlink:href="#DejaVuSans-20" x="290.03125"/>
      <use xlink:href="#DejaVuSans-56" x="321.818359"/>
      <use xlink:href="#DejaVuSans-65" x="382.476562"/>
      <use xlink:href="#DejaVuSans-6c" x="444"/>
      <use xlink:href="#DejaVuSans-6f" x="471.783203"/>
      <use xlink:href="#DejaVuSans-63" x="532.964844"/>
      <use xlink:href="#DejaVuSans-69" x="587.945312"/>
      <use xlink:href="#DejaVuSans-74" x="615.728516"/>
      <use xlink:href="#DejaVuSans-79" x="654.9375"/>
      <use xlink:href="#DejaVuSans-20" x="714.117188"/>
      <use xlink:href="#DejaVuSans-61" x="745.904297"/>
      <use xlink:href="#DejaVuSans-74" x="807.183594"/>
      <use xlink:href="#DejaVuSans-20" x="846.392578"/>
      <use xlink:href="#DejaVuSans-43" x="878.179688"/>
      <use xlink:href="#DejaVuSans-6f" x="948.003906"/>
      <use xlink:href="#DejaVuSans-6c" x="1009.185547"/>
      <use xlink:href="#DejaVuSans-6c" x="1036.96875"/>
      <use xlink:href="#DejaVuSans-69" x="1064.751953"/>
      <use xlink:href="#DejaVuSans-73" x="1092.535156"/>
      <use xlink:href="#DejaVuSans-69" x="1144.634766"/>
      <use xlink:href="#DejaVuSans-6f" x="1172.417969"/>
      <use xlink:href="#DejaVuSans-6e" x="1233.599609"/>
      <use xlink:href="#DejaVuSans-20" x="1296.978516"/>
      <use xlink:href="#DejaVuSans-28" x="1328.765625"/>
      <use xlink:href="#DejaVuSans-6d" x="1367.779297"/>
      <use xlink:href="#DejaVuSans-2f" x="1465.191406"/>
      <use xlink:href="#DejaVuSans-73" x="1498.882812"/>
      <use xlink:href="#DejaVuSans-29" x="1550.982422"/>
     </g>
    </g>
   </g>
   <g id="PolyCollection_1">
    <defs>
     <path id="m100dba47ae" d="M 194.036868 -56.321885 
L 62.564382 -56.321885 
L 62.233625 -59.611733 
L 62.704483 -62.901582 
L 63.957678 -66.19143 
L 65.945234 -69.481279 
L 68.593176 -72.771128 
L 71.80569 -76.060976 
L 75.470408 -79.350825 
L 79.464376 -82.640673 
L 83.660286 -85.930522 
L 87.932511 -89.220371 
L 92.162555 -92.510219 
L 96.243622 -95.800068 
L 100.084083 -99.089916 
L 103.609774 -102.379765 
L 106.765109 -105.669614 
L 109.51313 -108.959462 
L 111.83465 -112.249311 
L 113.726702 -115.53916 
L 115.200504 -118.829008 
L 116.279161 -122.118857 
L 116.99526 -125.408705 
L 117.388521 -128.698554 
L 117.503579 -131.988403 
L 117.387962 -135.278251 
L 117.090282 -138.5681 
L 116.65864 -141.857948 
L 116.139224 -145.147797 
L 115.5751 -148.437646 
L 115.005165 -151.727494 
L 114.463289 -155.017343 
L 113.97763 -158.307191 
L 113.570171 -161.59704 
L 113.256491 -164.886889 
L 113.045784 -168.176737 
L 112.941163 -171.466586 
L 112.940227 -174.756434 
L 113.035879 -178.046283 
L 113.217349 -181.336132 
L 113.471364 -184.62598 
L 113.783382 -187.915829 
L 114.13881 -191.205678 
L 114.524107 -194.495526 
L 114.927707 -197.785375 
L 115.34068 -201.075223 
L 115.757105 -204.365072 
L 116.174127 -207.654921 
L 116.591729 -210.944769 
L 117.012238 -214.234618 
L 117.439648 -217.524466 
L 117.878824 -220.814315 
L 118.33468 -224.104164 
L 118.811413 -227.394012 
L 119.311855 -230.683861 
L 119.837015 -233.973709 
L 120.385822 -237.263558 
L 120.955093 -240.553407 
L 121.539709 -243.843255 
L 122.132959 -247.133104 
L 122.727006 -250.422953 
L 123.31343 -253.712801 
L 123.883777 -257.00265 
L 124.430072 -260.292498 
L 124.94525 -263.582347 
L 125.423477 -266.872196 
L 125.860343 -270.162044 
L 126.252931 -273.451893 
L 126.599756 -276.741741 
L 126.900618 -280.03159 
L 127.156362 -283.321439 
L 127.368602 -286.611287 
L 127.539415 -289.901136 
L 127.671035 -293.190984 
L 127.765582 -296.480833 
L 127.824821 -299.770682 
L 127.849983 -303.06053 
L 127.841651 -306.350379 
L 127.799713 -309.640227 
L 127.723394 -312.930076 
L 127.611356 -316.219925 
L 127.461875 -319.509773 
L 127.273079 -322.799622 
L 127.043239 -326.089471 
L 126.771106 -329.379319 
L 126.456264 -332.669168 
L 126.099478 -335.959016 
L 125.703022 -339.248865 
L 125.270933 -342.538714 
L 124.809191 -345.828562 
L 124.325776 -349.118411 
L 123.830587 -352.408259 
L 123.335224 -355.698108 
L 122.852607 -358.987957 
L 122.396478 -362.277805 
L 121.980777 -365.567654 
L 121.618957 -368.857502 
L 121.323267 -372.147351 
L 121.104078 -375.4372 
L 120.969273 -378.727048 
L 120.923781 -382.016897 
L 135.677469 -382.016897 
L 135.677469 -382.016897 
L 135.631977 -378.727048 
L 135.497172 -375.4372 
L 135.277983 -372.147351 
L 134.982293 -368.857502 
L 134.620473 -365.567654 
L 134.204772 -362.277805 
L 133.748643 -358.987957 
L 133.266026 -355.698108 
L 132.770663 -352.408259 
L 132.275474 -349.118411 
L 131.792059 -345.828562 
L 131.330317 -342.538714 
L 130.898228 -339.248865 
L 130.501772 -335.959016 
L 130.144986 -332.669168 
L 129.830144 -329.379319 
L 129.558011 -326.089471 
L 129.328171 -322.799622 
L 129.139375 -319.509773 
L 128.989894 -316.219925 
L 128.877856 -312.930076 
L 128.801537 -309.640227 
L 128.759599 -306.350379 
L 128.751267 -303.06053 
L 128.776429 -299.770682 
L 128.835668 -296.480833 
L 128.930215 -293.190984 
L 129.061835 -289.901136 
L 129.232648 -286.611287 
L 129.444888 -283.321439 
L 129.700632 -280.03159 
L 130.001494 -276.741741 
L 130.348319 -273.451893 
L 130.740907 -270.162044 
L 131.177773 -266.872196 
L 131.656 -263.582347 
L 132.171178 -260.292498 
L 132.717473 -257.00265 
L 133.28782 -253.712801 
L 133.874244 -250.422953 
L 134.468291 -247.133104 
L 135.061541 -243.843255 
L 135.646157 -240.553407 
L 136.215428 -237.263558 
L 136.764235 -233.973709 
L 137.289395 -230.683861 
L 137.789837 -227.394012 
L 138.26657 -224.104164 
L 138.722426 -220.814315 
L 139.161602 -217.524466 
L 139.589012 -214.234618 
L 140.009521 -210.944769 
L 140.427123 -207.654921 
L 140.844145 -204.365072 
L 141.26057 -201.075223 
L 141.673543 -197.785375 
L 142.077143 -194.495526 
L 142.46244 -191.205678 
L 142.817868 -187.915829 
L 143.129886 -184.62598 
L 143.383901 -181.336132 
L 143.565371 -178.046283 
L 143.661023 -174.756434 
L 143.660087 -171.466586 
L 143.555466 -168.176737 
L 143.344759 -164.886889 
L 143.031079 -161.59704 
L 142.62362 -158.307191 
L 142.137961 -155.017343 
L 141.596085 -151.727494 
L 141.02615 -148.437646 
L 140.462026 -145.147797 
L 139.94261 -141.857948 
L 139.510968 -138.5681 
L 139.213288 -135.278251 
L 139.097671 -131.988403 
L 139.212729 -128.698554 
L 139.60599 -125.408705 
L 140.322089 -122.118857 
L 141.400746 -118.829008 
L 142.874548 -115.53916 
L 144.7666 -112.249311 
L 147.08812 -108.959462 
L 149.836141 -105.669614 
L 152.991476 -102.379765 
L 156.517167 -99.089916 
L 160.357628 -95.800068 
L 164.438695 -92.510219 
L 168.668739 -89.220371 
L 172.940964 -85.930522 
L 177.136874 -82.640673 
L 181.130842 -79.350825 
L 184.79556 -76.060976 
L 188.008074 -72.771128 
L 190.656016 -69.481279 
L 192.643572 -66.19143 
L 193.896767 -62.901582 
L 194.367625 -59.611733 
L 194.036868 -56.321885 
z
" style="stroke: #464646; stroke-opacity: 0.7; stroke-width: 1.25"/>
    </defs>
    <g clip-path="url(#pd6e48315f0)">
     <use xlink:href="#m100dba47ae" x="0" y="425.049687" style="fill: #5ce260; fill-opacity: 0.7; stroke: #464646; stroke-opacity: 0.7; stroke-width: 1.25"/>
    </g>
   </g>
   <g id="PolyCollection_2">
    <defs>
     <path id="mbf2c2039ce" d="M 357.4777 -56.0182 
L 229.45855 -56.0182 
L 228.064411 -58.305929 
L 227.401125 -60.593658 
L 227.490225 -62.881387 
L 228.32723 -65.169116 
L 229.881824 -67.456845 
L 232.099464 -69.744574 
L 234.904322 -72.032303 
L 238.203313 -74.320032 
L 241.890902 -76.607761 
L 245.854362 -78.89549 
L 249.979089 -81.183219 
L 254.15365 -83.470948 
L 258.274257 -85.758677 
L 262.248433 -88.046405 
L 265.997733 -90.334134 
L 269.459449 -92.621863 
L 272.587317 -94.909592 
L 275.351321 -97.197321 
L 277.736712 -99.48505 
L 279.742436 -101.772779 
L 281.379123 -104.060508 
L 282.666848 -106.348237 
L 283.63279 -108.635966 
L 284.308958 -110.923695 
L 284.730068 -113.211424 
L 284.931668 -115.499153 
L 284.948543 -117.786882 
L 284.813452 -120.074611 
L 284.556183 -122.362339 
L 284.202934 -124.650068 
L 283.77601 -126.937797 
L 283.293783 -129.225526 
L 282.77091 -131.513255 
L 282.218735 -133.800984 
L 281.645847 -136.088713 
L 281.058718 -138.376442 
L 280.462361 -140.664171 
L 279.860962 -142.9519 
L 279.258407 -145.239629 
L 278.658682 -147.527358 
L 278.066096 -149.815087 
L 277.485334 -152.102816 
L 276.921335 -154.390545 
L 276.379037 -156.678274 
L 275.863036 -158.966002 
L 275.377206 -161.253731 
L 274.92436 -163.54146 
L 274.506004 -165.829189 
L 274.122238 -168.116918 
L 273.771823 -170.404647 
L 273.452445 -172.692376 
L 273.161136 -174.980105 
L 272.894838 -177.267834 
L 272.651027 -179.555563 
L 272.428352 -181.843292 
L 272.227197 -184.131021 
L 272.05011 -186.41875 
L 271.902033 -188.706479 
L 271.790296 -190.994208 
L 271.724367 -193.281936 
L 271.715361 -195.569665 
L 271.775339 -197.857394 
L 271.916466 -200.145123 
L 272.150075 -202.432852 
L 272.485731 -204.720581 
L 272.930368 -207.00831 
L 273.48756 -209.296039 
L 274.156995 -211.583768 
L 274.934184 -213.871497 
L 275.810425 -216.159226 
L 276.773025 -218.446955 
L 277.805753 -220.734684 
L 278.889488 -223.022413 
L 280.003019 -225.310142 
L 281.123927 -227.59787 
L 282.229504 -229.885599 
L 283.29765 -232.173328 
L 284.3077 -234.461057 
L 285.241147 -236.748786 
L 286.082236 -239.036515 
L 286.818413 -241.324244 
L 287.440635 -243.611973 
L 287.943537 -245.899702 
L 288.325473 -248.187431 
L 288.588443 -250.47516 
L 288.737918 -252.762889 
L 288.782579 -255.050618 
L 288.733969 -257.338347 
L 288.606079 -259.626076 
L 288.414861 -261.913804 
L 288.177678 -264.201533 
L 287.912712 -266.489262 
L 287.638318 -268.776991 
L 287.372366 -271.06472 
L 287.131593 -273.352449 
L 286.930977 -275.640178 
L 286.783188 -277.927907 
L 286.698129 -280.215636 
L 286.682618 -282.503365 
L 300.253632 -282.503365 
L 300.253632 -282.503365 
L 300.238121 -280.215636 
L 300.153062 -277.927907 
L 300.005273 -275.640178 
L 299.804657 -273.352449 
L 299.563884 -271.06472 
L 299.297932 -268.776991 
L 299.023538 -266.489262 
L 298.758572 -264.201533 
L 298.521389 -261.913804 
L 298.330171 -259.626076 
L 298.202281 -257.338347 
L 298.153671 -255.050618 
L 298.198332 -252.762889 
L 298.347807 -250.47516 
L 298.610777 -248.187431 
L 298.992713 -245.899702 
L 299.495615 -243.611973 
L 300.117837 -241.324244 
L 300.854014 -239.036515 
L 301.695103 -236.748786 
L 302.62855 -234.461057 
L 303.6386 -232.173328 
L 304.706746 -229.885599 
L 305.812323 -227.59787 
L 306.933231 -225.310142 
L 308.046762 -223.022413 
L 309.130497 -220.734684 
L 310.163225 -218.446955 
L 311.125825 -216.159226 
L 312.002066 -213.871497 
L 312.779255 -211.583768 
L 313.44869 -209.296039 
L 314.005882 -207.00831 
L 314.450519 -204.720581 
L 314.786175 -202.432852 
L 315.019784 -200.145123 
L 315.160911 -197.857394 
L 315.220889 -195.569665 
L 315.211883 -193.281936 
L 315.145954 -190.994208 
L 315.034217 -188.706479 
L 314.88614 -186.41875 
L 314.709053 -184.131021 
L 314.507898 -181.843292 
L 314.285223 -179.555563 
L 314.041412 -177.267834 
L 313.775114 -174.980105 
L 313.483805 -172.692376 
L 313.164427 -170.404647 
L 312.814012 -168.116918 
L 312.430246 -165.829189 
L 312.01189 -163.54146 
L 311.559044 -161.253731 
L 311.073214 -158.966002 
L 310.557213 -156.678274 
L 310.014915 -154.390545 
L 309.450916 -152.102816 
L 308.870154 -149.815087 
L 308.277568 -147.527358 
L 307.677843 -145.239629 
L 307.075288 -142.9519 
L 306.473889 -140.664171 
L 305.877532 -138.376442 
L 305.290403 -136.088713 
L 304.717515 -133.800984 
L 304.16534 -131.513255 
L 303.642467 -129.225526 
L 303.16024 -126.937797 
L 302.733316 -124.650068 
L 302.380067 -122.362339 
L 302.122798 -120.074611 
L 301.987707 -117.786882 
L 302.004582 -115.499153 
L 302.206182 -113.211424 
L 302.627292 -110.923695 
L 303.30346 -108.635966 
L 304.269402 -106.348237 
L 305.557127 -104.060508 
L 307.193814 -101.772779 
L 309.199538 -99.48505 
L 311.584929 -97.197321 
L 314.348933 -94.909592 
L 317.476801 -92.621863 
L 320.938517 -90.334134 
L 324.687817 -88.046405 
L 328.661993 -85.758677 
L 332.7826 -83.470948 
L 336.957161 -81.183219 
L 341.081888 -78.89549 
L 345.045348 -76.607761 
L 348.732937 -74.320032 
L 352.031928 -72.032303 
L 354.836786 -69.744574 
L 357.054426 -67.456845 
L 358.60902 -65.169116 
L 359.446025 -62.881387 
L 359.535125 -60.593658 
L 358.871839 -58.305929 
L 357.4777 -56.0182 
z
" style="stroke: #464646; stroke-opacity: 0.7; stroke-width: 1.25"/>
    </defs>
    <g clip-path="url(#pd6e48315f0)">
     <use xlink:href="#mbf2c2039ce" x="0" y="425.049687" style="fill: #27d9d9; fill-opacity: 0.7; stroke: #464646; stroke-opacity: 0.7; stroke-width: 1.25"/>
    </g>
   </g>
   <g id="PolyCollection_3">
    <defs>
     <path id="m5db4f498c9" d="M 524.41469 -55.933693 
L 392.85656 -55.933693 
L 392.568625 -57.346194 
L 393.446314 -58.758695 
L 395.43522 -60.171196 
L 398.423483 -61.583697 
L 402.252005 -62.996197 
L 406.72836 -64.408698 
L 411.642715 -65.821199 
L 416.783947 -67.2337 
L 421.954234 -68.646201 
L 426.980788 -70.058702 
L 431.723867 -71.471202 
L 436.080759 -72.883703 
L 439.985973 -74.296204 
L 443.408278 -75.708705 
L 446.345462 -77.121206 
L 448.817819 -78.533707 
L 450.861291 -79.946207 
L 452.521018 -81.358708 
L 453.845831 -82.771209 
L 454.883997 -84.18371 
L 455.680272 -85.596211 
L 456.274187 -87.008712 
L 456.699352 -88.421213 
L 456.983552 -89.833713 
L 457.149359 -91.246214 
L 457.215044 -92.658715 
L 457.195612 -94.071216 
L 457.103801 -95.483717 
L 456.950976 -96.896218 
L 456.747843 -98.308718 
L 456.504968 -99.721219 
L 456.233082 -101.13372 
L 455.943193 -102.546221 
L 455.646532 -103.958722 
L 455.354347 -105.371223 
L 455.077608 -106.783723 
L 454.826647 -108.196224 
L 454.610778 -109.608725 
L 454.437929 -111.021226 
L 454.314314 -112.433727 
L 454.244159 -113.846228 
L 454.229504 -115.258728 
L 454.270081 -116.671229 
L 454.363279 -118.08373 
L 454.504204 -119.496231 
L 454.685841 -120.908732 
L 454.899324 -122.321233 
L 455.134314 -123.733734 
L 455.379489 -125.146234 
L 455.623125 -126.558735 
L 455.853742 -127.971236 
L 456.060791 -129.383737 
L 456.235313 -130.796238 
L 456.370543 -132.208739 
L 456.462384 -133.621239 
L 456.509717 -135.03374 
L 456.514492 -136.446241 
L 456.481594 -137.858742 
L 456.418462 -139.271243 
L 456.334486 -140.683744 
L 456.240229 -142.096244 
L 456.146521 -143.508745 
L 456.063516 -144.921246 
L 455.999794 -146.333747 
L 455.961593 -147.746248 
L 455.952264 -149.158749 
L 455.97199 -150.571249 
L 456.017811 -151.98375 
L 456.083956 -153.396251 
L 456.162441 -154.808752 
L 456.243879 -156.221253 
L 456.318398 -157.633754 
L 456.376585 -159.046255 
L 456.410345 -160.458755 
L 456.413581 -161.871256 
L 456.382626 -163.283757 
L 456.316394 -164.696258 
L 456.216231 -166.108759 
L 456.085504 -167.52126 
L 455.92899 -168.93376 
L 455.752155 -170.346261 
L 455.560435 -171.758762 
L 455.358609 -173.171263 
L 455.150393 -174.583764 
L 454.938285 -175.996265 
L 454.723706 -177.408765 
L 454.507422 -178.821266 
L 454.290151 -180.233767 
L 454.073277 -181.646268 
L 453.85952 -183.058769 
L 453.653433 -184.47127 
L 453.461617 -185.88377 
L 453.292588 -187.296271 
L 453.156267 -188.708772 
L 453.063152 -190.121273 
L 453.023277 -191.533774 
L 453.045085 -192.946275 
L 453.134389 -194.358776 
L 453.29356 -195.771276 
L 463.97769 -195.771276 
L 463.97769 -195.771276 
L 464.136861 -194.358776 
L 464.226165 -192.946275 
L 464.247973 -191.533774 
L 464.208098 -190.121273 
L 464.114983 -188.708772 
L 463.978662 -187.296271 
L 463.809633 -185.88377 
L 463.617817 -184.47127 
L 463.41173 -183.058769 
L 463.197973 -181.646268 
L 462.981099 -180.233767 
L 462.763828 -178.821266 
L 462.547544 -177.408765 
L 462.332965 -175.996265 
L 462.120857 -174.583764 
L 461.912641 -173.171263 
L 461.710815 -171.758762 
L 461.519095 -170.346261 
L 461.34226 -168.93376 
L 461.185746 -167.52126 
L 461.055019 -166.108759 
L 460.954856 -164.696258 
L 460.888624 -163.283757 
L 460.857669 -161.871256 
L 460.860905 -160.458755 
L 460.894665 -159.046255 
L 460.952852 -157.633754 
L 461.027371 -156.221253 
L 461.108809 -154.808752 
L 461.187294 -153.396251 
L 461.253439 -151.98375 
L 461.29926 -150.571249 
L 461.318986 -149.158749 
L 461.309657 -147.746248 
L 461.271456 -146.333747 
L 461.207734 -144.921246 
L 461.124729 -143.508745 
L 461.031021 -142.096244 
L 460.936764 -140.683744 
L 460.852788 -139.271243 
L 460.789656 -137.858742 
L 460.756758 -136.446241 
L 460.761533 -135.03374 
L 460.808866 -133.621239 
L 460.900707 -132.208739 
L 461.035937 -130.796238 
L 461.210459 -129.383737 
L 461.417508 -127.971236 
L 461.648125 -126.558735 
L 461.891761 -125.146234 
L 462.136936 -123.733734 
L 462.371926 -122.321233 
L 462.585409 -120.908732 
L 462.767046 -119.496231 
L 462.907971 -118.08373 
L 463.001169 -116.671229 
L 463.041746 -115.258728 
L 463.027091 -113.846228 
L 462.956936 -112.433727 
L 462.833321 -111.021226 
L 462.660472 -109.608725 
L 462.444603 -108.196224 
L 462.193642 -106.783723 
L 461.916903 -105.371223 
L 461.624718 -103.958722 
L 461.328057 -102.546221 
L 461.038168 -101.13372 
L 460.766282 -99.721219 
L 460.523407 -98.308718 
L 460.320274 -96.896218 
L 460.167449 -95.483717 
L 460.075638 -94.071216 
L 460.056206 -92.658715 
L 460.121891 -91.246214 
L 460.287698 -89.833713 
L 460.571898 -88.421213 
L 460.997063 -87.008712 
L 461.590978 -85.596211 
L 462.387253 -84.18371 
L 463.425419 -82.771209 
L 464.750232 -81.358708 
L 466.409959 -79.946207 
L 468.453431 -78.533707 
L 470.925788 -77.121206 
L 473.862972 -75.708705 
L 477.285277 -74.296204 
L 481.190491 -72.883703 
L 485.547383 -71.471202 
L 490.290462 -70.058702 
L 495.317016 -68.646201 
L 500.487303 -67.2337 
L 505.628535 -65.821199 
L 510.54289 -64.408698 
L 515.019245 -62.996197 
L 518.847767 -61.583697 
L 521.83603 -60.171196 
L 523.824936 -58.758695 
L 524.702625 -57.346194 
L 524.41469 -55.933693 
z
" style="stroke: #464646; stroke-opacity: 0.7; stroke-width: 1.25"/>
    </defs>
    <g clip-path="url(#pd6e48315f0)">
     <use xlink:href="#m5db4f498c9" x="0" y="425.049687" style="fill: #2a23c6; fill-opacity: 0.7; stroke: #464646; stroke-opacity: 0.7; stroke-width: 1.25"/>
    </g>
   </g>
   <g id="PolyCollection_4">
    <defs>
     <path id="mb40ccfff36" d="M 689.215997 -55.943384 
L 558.390253 -55.943384 
L 557.736125 -59.264866 
L 557.832564 -62.586347 
L 558.668122 -65.907829 
L 560.205026 -69.22931 
L 562.381512 -72.550792 
L 565.115517 -75.872273 
L 568.309452 -79.193755 
L 571.855676 -82.515236 
L 575.642246 -85.836718 
L 579.558538 -89.158199 
L 583.500345 -92.479681 
L 587.374161 -95.801163 
L 591.100413 -99.122644 
L 594.615534 -102.444126 
L 597.872869 -105.765607 
L 600.842472 -109.087089 
L 603.509973 -112.40857 
L 605.874697 -115.730052 
L 607.947283 -119.051533 
L 609.747031 -122.373015 
L 611.29919 -125.694496 
L 612.632394 -129.015978 
L 613.776366 -132.33746 
L 614.760022 -135.658941 
L 615.609994 -138.980423 
L 616.349619 -142.301904 
L 616.998358 -145.623386 
L 617.571607 -148.944867 
L 618.080832 -152.266349 
L 618.533968 -155.58783 
L 618.935997 -158.909312 
L 619.289637 -162.230793 
L 619.596082 -165.552275 
L 619.855719 -168.873757 
L 620.068797 -172.195238 
L 620.23599 -175.51672 
L 620.358834 -178.838201 
L 620.440029 -182.159683 
L 620.483585 -185.481164 
L 620.494829 -188.802646 
L 620.480274 -192.124127 
L 620.447374 -195.445609 
L 620.40419 -198.76709 
L 620.358992 -202.088572 
L 620.319843 -205.410053 
L 620.294176 -208.731535 
L 620.288421 -212.053017 
L 620.307688 -215.374498 
L 620.355544 -218.69598 
L 620.433885 -222.017461 
L 620.542923 -225.338943 
L 620.681262 -228.660424 
L 620.846086 -231.981906 
L 621.033405 -235.303387 
L 621.238362 -238.624869 
L 621.455561 -241.94635 
L 621.679401 -245.267832 
L 621.90438 -248.589314 
L 622.125358 -251.910795 
L 622.33776 -255.232277 
L 622.537714 -258.553758 
L 622.722113 -261.87524 
L 622.888605 -265.196721 
L 623.035534 -268.518203 
L 623.161811 -271.839684 
L 623.266756 -275.161166 
L 623.349908 -278.482647 
L 623.410824 -281.804129 
L 623.448874 -285.125611 
L 623.463053 -288.447092 
L 623.451809 -291.768574 
L 623.412913 -295.090055 
L 623.343374 -298.411537 
L 623.239407 -301.733018 
L 623.096478 -305.0545 
L 622.909413 -308.375981 
L 622.672607 -311.697463 
L 622.380303 -315.018944 
L 622.026973 -318.340426 
L 621.607758 -321.661907 
L 621.118987 -324.983389 
L 620.558707 -328.304871 
L 619.927232 -331.626352 
L 619.227633 -334.947834 
L 618.466147 -338.269315 
L 617.652441 -341.590797 
L 616.799702 -344.912278 
L 615.924498 -348.23376 
L 615.046413 -351.555241 
L 614.187425 -354.876723 
L 613.371069 -358.198204 
L 612.621411 -361.519686 
L 611.961891 -364.841168 
L 611.41412 -368.162649 
L 610.996708 -371.484131 
L 610.724216 -374.805612 
L 610.606316 -378.127094 
L 610.647215 -381.448575 
L 610.845414 -384.770057 
L 636.760836 -384.770057 
L 636.760836 -384.770057 
L 636.959035 -381.448575 
L 636.999934 -378.127094 
L 636.882034 -374.805612 
L 636.609542 -371.484131 
L 636.19213 -368.162649 
L 635.644359 -364.841168 
L 634.984839 -361.519686 
L 634.235181 -358.198204 
L 633.418825 -354.876723 
L 632.559837 -351.555241 
L 631.681752 -348.23376 
L 630.806548 -344.912278 
L 629.953809 -341.590797 
L 629.140103 -338.269315 
L 628.378617 -334.947834 
L 627.679018 -331.626352 
L 627.047543 -328.304871 
L 626.487263 -324.983389 
L 625.998492 -321.661907 
L 625.579277 -318.340426 
L 625.225947 -315.018944 
L 624.933643 -311.697463 
L 624.696837 -308.375981 
L 624.509772 -305.0545 
L 624.366843 -301.733018 
L 624.262876 -298.411537 
L 624.193337 -295.090055 
L 624.154441 -291.768574 
L 624.143197 -288.447092 
L 624.157376 -285.125611 
L 624.195426 -281.804129 
L 624.256342 -278.482647 
L 624.339494 -275.161166 
L 624.444439 -271.839684 
L 624.570716 -268.518203 
L 624.717645 -265.196721 
L 624.884137 -261.87524 
L 625.068536 -258.553758 
L 625.26849 -255.232277 
L 625.480892 -251.910795 
L 625.70187 -248.589314 
L 625.926849 -245.267832 
L 626.150689 -241.94635 
L 626.367888 -238.624869 
L 626.572845 -235.303387 
L 626.760164 -231.981906 
L 626.924988 -228.660424 
L 627.063327 -225.338943 
L 627.172365 -222.017461 
L 627.250706 -218.69598 
L 627.298562 -215.374498 
L 627.317829 -212.053017 
L 627.312074 -208.731535 
L 627.286407 -205.410053 
L 627.247258 -202.088572 
L 627.20206 -198.76709 
L 627.158876 -195.445609 
L 627.125976 -192.124127 
L 627.111421 -188.802646 
L 627.122665 -185.481164 
L 627.166221 -182.159683 
L 627.247416 -178.838201 
L 627.37026 -175.51672 
L 627.537453 -172.195238 
L 627.750531 -168.873757 
L 628.010168 -165.552275 
L 628.316613 -162.230793 
L 628.670253 -158.909312 
L 629.072282 -155.58783 
L 629.525418 -152.266349 
L 630.034643 -148.944867 
L 630.607892 -145.623386 
L 631.256631 -142.301904 
L 631.996256 -138.980423 
L 632.846228 -135.658941 
L 633.829884 -132.33746 
L 634.973856 -129.015978 
L 636.30706 -125.694496 
L 637.859219 -122.373015 
L 639.658967 -119.051533 
L 641.731553 -115.730052 
L 644.096277 -112.40857 
L 646.763778 -109.087089 
L 649.733381 -105.765607 
L 652.990716 -102.444126 
L 656.505837 -99.122644 
L 660.232089 -95.801163 
L 664.105905 -92.479681 
L 668.047712 -89.158199 
L 671.964004 -85.836718 
L 675.750574 -82.515236 
L 679.296798 -79.193755 
L 682.490733 -75.872273 
L 685.224738 -72.550792 
L 687.401224 -69.22931 
L 688.938128 -65.907829 
L 689.773686 -62.586347 
L 689.870125 -59.264866 
L 689.215997 -55.943384 
z
" style="stroke: #464646; stroke-opacity: 0.7; stroke-width: 1.25"/>
    </defs>
    <g clip-path="url(#pd6e48315f0)">
     <use xlink:href="#mb40ccfff36" x="0" y="425.049687" style="fill: #df55c7; fill-opacity: 0.7; stroke: #464646; stroke-opacity: 0.7; stroke-width: 1.25"/>
    </g>
   </g>
   <g id="line2d_7">
    <path d="M 128.300625 368.727803 
L 128.300625 199.363777 
" clip-path="url(#pd6e48315f0)" style="fill: none; stroke: #464646; stroke-width: 1.875; stroke-linecap: round"/>
   </g>
   <g id="line2d_8">
    <path d="M 128.300625 367.730395 
L 128.300625 267.051513 
" clip-path="url(#pd6e48315f0)" style="fill: none; stroke: #464646; stroke-width: 5.625; stroke-linecap: round"/>
   </g>
   <g id="line2d_9">
    <path d="M 128.300625 365.393735 
" clip-path="url(#pd6e48315f0)" style="fill: none; stroke: #464646; stroke-width: 1.5; stroke-linecap: round"/>
    <defs>
     <path id="me101273788" d="M 2.34375 0 
L -2.34375 -0 
" style="stroke: #ffffff; stroke-width: 1.125"/>
    </defs>
    <g clip-path="url(#pd6e48315f0)">
     <use xlink:href="#me101273788" x="128.300625" y="365.393735" style="fill: #ffffff; stroke: #ffffff; stroke-width: 1.125"/>
    </g>
   </g>
   <g id="line2d_10">
    <path d="M 293.468125 369.031487 
L 293.468125 142.546323 
" clip-path="url(#pd6e48315f0)" style="fill: none; stroke: #464646; stroke-width: 1.875; stroke-linecap: round"/>
   </g>
   <g id="line2d_11">
    <path d="M 293.468125 364.365798 
L 293.468125 254.984584 
" clip-path="url(#pd6e48315f0)" style="fill: none; stroke: #464646; stroke-width: 5.625; stroke-linecap: round"/>
   </g>
   <g id="line2d_12">
    <path d="M 293.468125 358.749697 
" clip-path="url(#pd6e48315f0)" style="fill: none; stroke: #464646; stroke-width: 1.5; stroke-linecap: round"/>
    <g clip-path="url(#pd6e48315f0)">
     <use xlink:href="#me101273788" x="293.468125" y="358.749697" style="fill: #ffffff; stroke: #ffffff; stroke-width: 1.125"/>
    </g>
   </g>
   <g id="line2d_13">
    <path d="M 458.635625 369.115994 
L 458.635625 365.907038 
" clip-path="url(#pd6e48315f0)" style="fill: none; stroke: #464646; stroke-width: 1.875; stroke-linecap: round"/>
   </g>
   <g id="line2d_14">
    <path d="M 458.635625 369.028688 
L 458.635625 365.958611 
" clip-path="url(#pd6e48315f0)" style="fill: none; stroke: #464646; stroke-width: 5.625; stroke-linecap: round"/>
   </g>
   <g id="line2d_15">
    <path d="M 458.635625 368.599526 
" clip-path="url(#pd6e48315f0)" style="fill: none; stroke: #464646; stroke-width: 1.5; stroke-linecap: round"/>
    <g clip-path="url(#pd6e48315f0)">
     <use xlink:href="#me101273788" x="458.635625" y="368.599526" style="fill: #ffffff; stroke: #ffffff; stroke-width: 1.125"/>
    </g>
   </g>
   <g id="line2d_16">
    <path d="M 623.803125 369.106303 
L 623.803125 283.324564 
" clip-path="url(#pd6e48315f0)" style="fill: none; stroke: #464646; stroke-width: 1.875; stroke-linecap: round"/>
   </g>
   <g id="line2d_17">
    <path d="M 623.803125 368.364058 
L 623.803125 329.344634 
" clip-path="url(#pd6e48315f0)" style="fill: none; stroke: #464646; stroke-width: 5.625; stroke-linecap: round"/>
   </g>
   <g id="line2d_18">
    <path d="M 623.803125 364.461032 
" clip-path="url(#pd6e48315f0)" style="fill: none; stroke: #464646; stroke-width: 1.5; stroke-linecap: round"/>
    <g clip-path="url(#pd6e48315f0)">
     <use xlink:href="#me101273788" x="623.803125" y="364.461032" style="fill: #ffffff; stroke: #ffffff; stroke-width: 1.125"/>
    </g>
   </g>
   <g id="patch_3">
    <path d="M 45.716875 385.557812 
L 45.716875 23.837812 
" style="fill: none; stroke: #cccccc; stroke-width: 0.8; stroke-linejoin: miter; stroke-linecap: square"/>
   </g>
   <g id="patch_4">
    <path d="M 706.386875 385.557812 
L 706.386875 23.837812 
" style="fill: none; stroke: #cccccc; stroke-width: 0.8; stroke-linejoin: miter; stroke-linecap: square"/>
   </g>
   <g id="patch_5">
    <path d="M 45.716875 385.557812 
L 706.386875 385.557812 
" style="fill: none; stroke: #cccccc; stroke-width: 0.8; stroke-linejoin: miter; stroke-linecap: square"/>
   </g>
   <g id="patch_6">
    <path d="M 45.716875 23.837812 
L 706.386875 23.837812 
" style="fill: none; stroke: #cccccc; stroke-width: 0.8; stroke-linejoin: miter; stroke-linecap: square"/>
   </g>
   <g id="text_13">
    <!-- Robot Velocity at Collision by Experiment -->
    <g style="fill: #262626" transform="translate(212.630313 17.837812)scale(0.14 -0.14)">
     <defs>
      <path id="DejaVuSans-Bold-52" d="M 2297 2597 
Q 2675 2597 2839 2737 
Q 3003 2878 3003 3200 
Q 3003 3519 2839 3656 
Q 2675 3794 2297 3794 
L 1791 3794 
L 1791 2597 
L 2297 2597 
z
M 1791 1766 
L 1791 0 
L 588 0 
L 588 4666 
L 2425 4666 
Q 3347 4666 3776 4356 
Q 4206 4047 4206 3378 
Q 4206 2916 3982 2619 
Q 3759 2322 3309 2181 
Q 3556 2125 3751 1926 
Q 3947 1728 4147 1325 
L 4800 0 
L 3519 0 
L 2950 1159 
Q 2778 1509 2601 1637 
Q 2425 1766 2131 1766 
L 1791 1766 
z
" transform="scale(0.015625)"/>
      <path id="DejaVuSans-Bold-6f" d="M 2203 2784 
Q 1831 2784 1636 2517 
Q 1441 2250 1441 1747 
Q 1441 1244 1636 976 
Q 1831 709 2203 709 
Q 2569 709 2762 976 
Q 2956 1244 2956 1747 
Q 2956 2250 2762 2517 
Q 2569 2784 2203 2784 
z
M 2203 3584 
Q 3106 3584 3614 3096 
Q 4122 2609 4122 1747 
Q 4122 884 3614 396 
Q 3106 -91 2203 -91 
Q 1297 -91 786 396 
Q 275 884 275 1747 
Q 275 2609 786 3096 
Q 1297 3584 2203 3584 
z
" transform="scale(0.015625)"/>
      <path id="DejaVuSans-Bold-62" d="M 2400 722 
Q 2759 722 2948 984 
Q 3138 1247 3138 1747 
Q 3138 2247 2948 2509 
Q 2759 2772 2400 2772 
Q 2041 2772 1848 2508 
Q 1656 2244 1656 1747 
Q 1656 1250 1848 986 
Q 2041 722 2400 722 
z
M 1656 2988 
Q 1888 3294 2169 3439 
Q 2450 3584 2816 3584 
Q 3463 3584 3878 3070 
Q 4294 2556 4294 1747 
Q 4294 938 3878 423 
Q 3463 -91 2816 -91 
Q 2450 -91 2169 54 
Q 1888 200 1656 506 
L 1656 0 
L 538 0 
L 538 4863 
L 1656 4863 
L 1656 2988 
z
" transform="scale(0.015625)"/>
      <path id="DejaVuSans-Bold-74" d="M 1759 4494 
L 1759 3500 
L 2913 3500 
L 2913 2700 
L 1759 2700 
L 1759 1216 
Q 1759 972 1856 886 
Q 1953 800 2241 800 
L 2816 800 
L 2816 0 
L 1856 0 
Q 1194 0 917 276 
Q 641 553 641 1216 
L 641 2700 
L 84 2700 
L 84 3500 
L 641 3500 
L 641 4494 
L 1759 4494 
z
" transform="scale(0.015625)"/>
      <path id="DejaVuSans-Bold-20" transform="scale(0.015625)"/>
      <path id="DejaVuSans-Bold-56" d="M 31 4666 
L 1241 4666 
L 2478 1222 
L 3713 4666 
L 4922 4666 
L 3194 0 
L 1759 0 
L 31 4666 
z
" transform="scale(0.015625)"/>
      <path id="DejaVuSans-Bold-65" d="M 4031 1759 
L 4031 1441 
L 1416 1441 
Q 1456 1047 1700 850 
Q 1944 653 2381 653 
Q 2734 653 3104 758 
Q 3475 863 3866 1075 
L 3866 213 
Q 3469 63 3072 -14 
Q 2675 -91 2278 -91 
Q 1328 -91 801 392 
Q 275 875 275 1747 
Q 275 2603 792 3093 
Q 1309 3584 2216 3584 
Q 3041 3584 3536 3087 
Q 4031 2591 4031 1759 
z
M 2881 2131 
Q 2881 2450 2695 2645 
Q 2509 2841 2209 2841 
Q 1884 2841 1681 2658 
Q 1478 2475 1428 2131 
L 2881 2131 
z
" transform="scale(0.015625)"/>
      <path id="DejaVuSans-Bold-6c" d="M 538 4863 
L 1656 4863 
L 1656 0 
L 538 0 
L 538 4863 
z
" transform="scale(0.015625)"/>
      <path id="DejaVuSans-Bold-63" d="M 3366 3391 
L 3366 2478 
Q 3138 2634 2908 2709 
Q 2678 2784 2431 2784 
Q 1963 2784 1702 2511 
Q 1441 2238 1441 1747 
Q 1441 1256 1702 982 
Q 1963 709 2431 709 
Q 2694 709 2930 787 
Q 3166 866 3366 1019 
L 3366 103 
Q 3103 6 2833 -42 
Q 2563 -91 2291 -91 
Q 1344 -91 809 395 
Q 275 881 275 1747 
Q 275 2613 809 3098 
Q 1344 3584 2291 3584 
Q 2566 3584 2833 3536 
Q 3100 3488 3366 3391 
z
" transform="scale(0.015625)"/>
      <path id="DejaVuSans-Bold-69" d="M 538 3500 
L 1656 3500 
L 1656 0 
L 538 0 
L 538 3500 
z
M 538 4863 
L 1656 4863 
L 1656 3950 
L 538 3950 
L 538 4863 
z
" transform="scale(0.015625)"/>
      <path id="DejaVuSans-Bold-79" d="M 78 3500 
L 1197 3500 
L 2138 1125 
L 2938 3500 
L 4056 3500 
L 2584 -331 
Q 2363 -916 2067 -1148 
Q 1772 -1381 1288 -1381 
L 641 -1381 
L 641 -647 
L 991 -647 
Q 1275 -647 1404 -556 
Q 1534 -466 1606 -231 
L 1638 -134 
L 78 3500 
z
" transform="scale(0.015625)"/>
      <path id="DejaVuSans-Bold-61" d="M 2106 1575 
Q 1756 1575 1579 1456 
Q 1403 1338 1403 1106 
Q 1403 894 1545 773 
Q 1688 653 1941 653 
Q 2256 653 2472 879 
Q 2688 1106 2688 1447 
L 2688 1575 
L 2106 1575 
z
M 3816 1997 
L 3816 0 
L 2688 0 
L 2688 519 
Q 2463 200 2181 54 
Q 1900 -91 1497 -91 
Q 953 -91 614 226 
Q 275 544 275 1050 
Q 275 1666 698 1953 
Q 1122 2241 2028 2241 
L 2688 2241 
L 2688 2328 
Q 2688 2594 2478 2717 
Q 2269 2841 1825 2841 
Q 1466 2841 1156 2769 
Q 847 2697 581 2553 
L 581 3406 
Q 941 3494 1303 3539 
Q 1666 3584 2028 3584 
Q 2975 3584 3395 3211 
Q 3816 2838 3816 1997 
z
" transform="scale(0.015625)"/>
      <path id="DejaVuSans-Bold-43" d="M 4288 256 
Q 3956 84 3597 -3 
Q 3238 -91 2847 -91 
Q 1681 -91 1000 561 
Q 319 1213 319 2328 
Q 319 3447 1000 4098 
Q 1681 4750 2847 4750 
Q 3238 4750 3597 4662 
Q 3956 4575 4288 4403 
L 4288 3438 
Q 3953 3666 3628 3772 
Q 3303 3878 2944 3878 
Q 2300 3878 1931 3465 
Q 1563 3053 1563 2328 
Q 1563 1606 1931 1193 
Q 2300 781 2944 781 
Q 3303 781 3628 887 
Q 3953 994 4288 1222 
L 4288 256 
z
" transform="scale(0.015625)"/>
      <path id="DejaVuSans-Bold-73" d="M 3272 3391 
L 3272 2541 
Q 2913 2691 2578 2766 
Q 2244 2841 1947 2841 
Q 1628 2841 1473 2761 
Q 1319 2681 1319 2516 
Q 1319 2381 1436 2309 
Q 1553 2238 1856 2203 
L 2053 2175 
Q 2913 2066 3209 1816 
Q 3506 1566 3506 1031 
Q 3506 472 3093 190 
Q 2681 -91 1863 -91 
Q 1516 -91 1145 -36 
Q 775 19 384 128 
L 384 978 
Q 719 816 1070 734 
Q 1422 653 1784 653 
Q 2113 653 2278 743 
Q 2444 834 2444 1013 
Q 2444 1163 2330 1236 
Q 2216 1309 1875 1350 
L 1678 1375 
Q 931 1469 631 1722 
Q 331 1975 331 2491 
Q 331 3047 712 3315 
Q 1094 3584 1881 3584 
Q 2191 3584 2531 3537 
Q 2872 3491 3272 3391 
z
" transform="scale(0.015625)"/>
      <path id="DejaVuSans-Bold-6e" d="M 4056 2131 
L 4056 0 
L 2931 0 
L 2931 347 
L 2931 1631 
Q 2931 2084 2911 2256 
Q 2891 2428 2841 2509 
Q 2775 2619 2662 2680 
Q 2550 2741 2406 2741 
Q 2056 2741 1856 2470 
Q 1656 2200 1656 1722 
L 1656 0 
L 538 0 
L 538 3500 
L 1656 3500 
L 1656 2988 
Q 1909 3294 2193 3439 
Q 2478 3584 2822 3584 
Q 3428 3584 3742 3212 
Q 4056 2841 4056 2131 
z
" transform="scale(0.015625)"/>
      <path id="DejaVuSans-Bold-45" d="M 588 4666 
L 3834 4666 
L 3834 3756 
L 1791 3756 
L 1791 2888 
L 3713 2888 
L 3713 1978 
L 1791 1978 
L 1791 909 
L 3903 909 
L 3903 0 
L 588 0 
L 588 4666 
z
" transform="scale(0.015625)"/>
      <path id="DejaVuSans-Bold-78" d="M 1422 1791 
L 159 3500 
L 1344 3500 
L 2059 2463 
L 2784 3500 
L 3969 3500 
L 2706 1797 
L 4031 0 
L 2847 0 
L 2059 1106 
L 1281 0 
L 97 0 
L 1422 1791 
z
" transform="scale(0.015625)"/>
      <path id="DejaVuSans-Bold-70" d="M 1656 506 
L 1656 -1331 
L 538 -1331 
L 538 3500 
L 1656 3500 
L 1656 2988 
Q 1888 3294 2169 3439 
Q 2450 3584 2816 3584 
Q 3463 3584 3878 3070 
Q 4294 2556 4294 1747 
Q 4294 938 3878 423 
Q 3463 -91 2816 -91 
Q 2450 -91 2169 54 
Q 1888 200 1656 506 
z
M 2400 2772 
Q 2041 2772 1848 2508 
Q 1656 2244 1656 1747 
Q 1656 1250 1848 986 
Q 2041 722 2400 722 
Q 2759 722 2948 984 
Q 3138 1247 3138 1747 
Q 3138 2247 2948 2509 
Q 2759 2772 2400 2772 
z
" transform="scale(0.015625)"/>
      <path id="DejaVuSans-Bold-72" d="M 3138 2547 
Q 2991 2616 2845 2648 
Q 2700 2681 2553 2681 
Q 2122 2681 1889 2404 
Q 1656 2128 1656 1613 
L 1656 0 
L 538 0 
L 538 3500 
L 1656 3500 
L 1656 2925 
Q 1872 3269 2151 3426 
Q 2431 3584 2822 3584 
Q 2878 3584 2943 3579 
Q 3009 3575 3134 3559 
L 3138 2547 
z
" transform="scale(0.015625)"/>
      <path id="DejaVuSans-Bold-6d" d="M 3781 2919 
Q 3994 3244 4286 3414 
Q 4578 3584 4928 3584 
Q 5531 3584 5847 3212 
Q 6163 2841 6163 2131 
L 6163 0 
L 5038 0 
L 5038 1825 
Q 5041 1866 5042 1909 
Q 5044 1953 5044 2034 
Q 5044 2406 4934 2573 
Q 4825 2741 4581 2741 
Q 4263 2741 4089 2478 
Q 3916 2216 3909 1719 
L 3909 0 
L 2784 0 
L 2784 1825 
Q 2784 2406 2684 2573 
Q 2584 2741 2328 2741 
Q 2006 2741 1831 2477 
Q 1656 2213 1656 1722 
L 1656 0 
L 531 0 
L 531 3500 
L 1656 3500 
L 1656 2988 
Q 1863 3284 2130 3434 
Q 2397 3584 2719 3584 
Q 3081 3584 3359 3409 
Q 3638 3234 3781 2919 
z
" transform="scale(0.015625)"/>
     </defs>
     <use xlink:href="#DejaVuSans-Bold-52"/>
     <use xlink:href="#DejaVuSans-Bold-6f" x="77.001953"/>
     <use xlink:href="#DejaVuSans-Bold-62" x="145.703125"/>
     <use xlink:href="#DejaVuSans-Bold-6f" x="217.285156"/>
     <use xlink:href="#DejaVuSans-Bold-74" x="285.986328"/>
     <use xlink:href="#DejaVuSans-Bold-20" x="333.789062"/>
     <use xlink:href="#DejaVuSans-Bold-56" x="368.603516"/>
     <use xlink:href="#DejaVuSans-Bold-65" x="440.496094"/>
     <use xlink:href="#DejaVuSans-Bold-6c" x="508.318359"/>
     <use xlink:href="#DejaVuSans-Bold-6f" x="542.595703"/>
     <use xlink:href="#DejaVuSans-Bold-63" x="611.296875"/>
     <use xlink:href="#DejaVuSans-Bold-69" x="670.574219"/>
     <use xlink:href="#DejaVuSans-Bold-74" x="704.851562"/>
     <use xlink:href="#DejaVuSans-Bold-79" x="752.654297"/>
     <use xlink:href="#DejaVuSans-Bold-20" x="817.839844"/>
     <use xlink:href="#DejaVuSans-Bold-61" x="852.654297"/>
     <use xlink:href="#DejaVuSans-Bold-74" x="920.134766"/>
     <use xlink:href="#DejaVuSans-Bold-20" x="967.9375"/>
     <use xlink:href="#DejaVuSans-Bold-43" x="1002.751953"/>
     <use xlink:href="#DejaVuSans-Bold-6f" x="1076.140625"/>
     <use xlink:href="#DejaVuSans-Bold-6c" x="1144.841797"/>
     <use xlink:href="#DejaVuSans-Bold-6c" x="1179.119141"/>
     <use xlink:href="#DejaVuSans-Bold-69" x="1213.396484"/>
     <use xlink:href="#DejaVuSans-Bold-73" x="1247.673828"/>
     <use xlink:href="#DejaVuSans-Bold-69" x="1307.195312"/>
     <use xlink:href="#DejaVuSans-Bold-6f" x="1341.472656"/>
     <use xlink:href="#DejaVuSans-Bold-6e" x="1410.173828"/>
     <use xlink:href="#DejaVuSans-Bold-20" x="1481.365234"/>
     <use xlink:href="#DejaVuSans-Bold-62" x="1516.179688"/>
     <use xlink:href="#DejaVuSans-Bold-79" x="1587.761719"/>
     <use xlink:href="#DejaVuSans-Bold-20" x="1652.947266"/>
     <use xlink:href="#DejaVuSans-Bold-45" x="1687.761719"/>
     <use xlink:href="#DejaVuSans-Bold-78" x="1756.072266"/>
     <use xlink:href="#DejaVuSans-Bold-70" x="1820.574219"/>
     <use xlink:href="#DejaVuSans-Bold-65" x="1892.15625"/>
     <use xlink:href="#DejaVuSans-Bold-72" x="1959.978516"/>
     <use xlink:href="#DejaVuSans-Bold-69" x="2009.294922"/>
     <use xlink:href="#DejaVuSans-Bold-6d" x="2043.572266"/>
     <use xlink:href="#DejaVuSans-Bold-65" x="2147.771484"/>
     <use xlink:href="#DejaVuSans-Bold-6e" x="2215.59375"/>
     <use xlink:href="#DejaVuSans-Bold-74" x="2286.785156"/>
    </g>
   </g>
  </g>
 </g>
 <defs>
  <clipPath id="pd6e48315f0">
   <rect x="45.716875" y="23.837812" width="660.67" height="361.72"/>
  </clipPath>
 </defs>
</svg>
