<?xml version="1.0" encoding="utf-8" standalone="no"?>
<!DOCTYPE svg PUBLIC "-//W3C//DTD SVG 1.1//EN"
  "http://www.w3.org/Graphics/SVG/1.1/DTD/svg11.dtd">
<svg xmlns:xlink="http://www.w3.org/1999/xlink" width="713.53125pt" height="425.049687pt" viewBox="0 0 713.53125 425.049687" xmlns="http://www.w3.org/2000/svg" version="1.1">
 <metadata>
  <rdf:RDF xmlns:dc="http://purl.org/dc/elements/1.1/" xmlns:cc="http://creativecommons.org/ns#" xmlns:rdf="http://www.w3.org/1999/02/22-rdf-syntax-ns#">
   <cc:Work>
    <dc:type rdf:resource="http://purl.org/dc/dcmitype/StillImage"/>
    <dc:date>2026-01-22T16:54:12.934537</dc:date>
    <dc:format>image/svg+xml</dc:format>
    <dc:creator>
     <cc:Agent>
      <dc:title>Matplotlib v3.5.1, https://matplotlib.org/</dc:title>
     </cc:Agent>
    </dc:creator>
   </cc:Work>
  </rdf:RDF>
 </metadata>
 <defs>
  <style type="text/css">*{stroke-linejoin: round; stroke-linecap: butt}</style>
 </defs>
 <g id="figure_1">
  <g id="patch_1">
   <path d="M 0 425.049687 
L 713.53125 425.049687 
L 713.53125 0 
L 0 0 
z
" style="fill: #ffffff"/>
  </g>
  <g id="axes_1">
   <g id="patch_2">
    <path d="M 48.90125 385.557812 
L 706.33125 385.557812 
L 706.33125 23.837812 
L 48.90125 23.837812 
z
" style="fill: #ffffff"/>
   </g>
   <g id="matplotlib.axis_1">
    <g id="xtick_1">
     <g id="text_1">
      <!-- No VLM -->
      <g style="fill: #262626" transform="translate(112.170625 400.15625)scale(0.1 -0.1)">
       <defs>
        <path id="DejaVuSans-4e" d="M 628 4666 
L 1478 4666 
L 3547 763 
L 3547 4666 
L 4159 4666 
L 4159 0 
L 3309 0 
L 1241 3903 
L 1241 0 
L 628 0 
L 628 4666 
z
" transform="scale(0.015625)"/>
        <path id="DejaVuSans-6f" d="M 1959 3097 
Q 1497 3097 1228 2736 
Q 959 2375 959 1747 
Q 959 1119 1226 758 
Q 1494 397 1959 397 
Q 2419 397 2687 759 
Q 2956 1122 2956 1747 
Q 2956 2369 2687 2733 
Q 2419 3097 1959 3097 
z
M 1959 3584 
Q 2709 3584 3137 3096 
Q 3566 2609 3566 1747 
Q 3566 888 3137 398 
Q 2709 -91 1959 -91 
Q 1206 -91 779 398 
Q 353 888 353 1747 
Q 353 2609 779 3096 
Q 1206 3584 1959 3584 
z
" transform="scale(0.015625)"/>
        <path id="DejaVuSans-20" transform="scale(0.015625)"/>
        <path id="DejaVuSans-56" d="M 1831 0 
L 50 4666 
L 709 4666 
L 2188 738 
L 3669 4666 
L 4325 4666 
L 2547 0 
L 1831 0 
z
" transform="scale(0.015625)"/>
        <path id="DejaVuSans-4c" d="M 628 4666 
L 1259 4666 
L 1259 531 
L 3531 531 
L 3531 0 
L 628 0 
L 628 4666 
z
" transform="scale(0.015625)"/>
        <path id="DejaVuSans-4d" d="M 628 4666 
L 1569 4666 
L 2759 1491 
L 3956 4666 
L 4897 4666 
L 4897 0 
L 4281 0 
L 4281 4097 
L 3078 897 
L 2444 897 
L 1241 4097 
L 1241 0 
L 628 0 
L 628 4666 
z
" transform="scale(0.015625)"/>
       </defs>
       <use xlink:href="#DejaVuSans-4e"/>
       <use xlink:href="#DejaVuSans-6f" x="74.804688"/>
       <use xlink:href="#DejaVuSans-20" x="135.986328"/>
       <use xlink:href="#DejaVuSans-56" x="167.773438"/>
       <use xlink:href="#DejaVuSans-4c" x="236.181641"/>
       <use xlink:href="#DejaVuSans-4d" x="291.894531"/>
      </g>
     </g>
    </g>
    <g id="xtick_2">
     <g id="text_2">
      <!-- Local VLM -->
      <g style="fill: #262626" transform="translate(270.367969 400.15625)scale(0.1 -0.1)">
       <defs>
        <path id="DejaVuSans-63" d="M 3122 3366 
L 3122 2828 
Q 2878 2963 2633 3030 
Q 2388 3097 2138 3097 
Q 1578 3097 1268 2742 
Q 959 2388 959 1747 
Q 959 1106 1268 751 
Q 1578 397 2138 397 
Q 2388 397 2633 464 
Q 2878 531 3122 666 
L 3122 134 
Q 2881 22 2623 -34 
Q 2366 -91 2075 -91 
Q 1284 -91 818 406 
Q 353 903 353 1747 
Q 353 2603 823 3093 
Q 1294 3584 2113 3584 
Q 2378 3584 2631 3529 
Q 2884 3475 3122 3366 
z
" transform="scale(0.015625)"/>
        <path id="DejaVuSans-61" d="M 2194 1759 
Q 1497 1759 1228 1600 
Q 959 1441 959 1056 
Q 959 750 1161 570 
Q 1363 391 1709 391 
Q 2188 391 2477 730 
Q 2766 1069 2766 1631 
L 2766 1759 
L 2194 1759 
z
M 3341 1997 
L 3341 0 
L 2766 0 
L 2766 531 
Q 2569 213 2275 61 
Q 1981 -91 1556 -91 
Q 1019 -91 701 211 
Q 384 513 384 1019 
Q 384 1609 779 1909 
Q 1175 2209 1959 2209 
L 2766 2209 
L 2766 2266 
Q 2766 2663 2505 2880 
Q 2244 3097 1772 3097 
Q 1472 3097 1187 3025 
Q 903 2953 641 2809 
L 641 3341 
Q 956 3463 1253 3523 
Q 1550 3584 1831 3584 
Q 2591 3584 2966 3190 
Q 3341 2797 3341 1997 
z
" transform="scale(0.015625)"/>
        <path id="DejaVuSans-6c" d="M 603 4863 
L 1178 4863 
L 1178 0 
L 603 0 
L 603 4863 
z
" transform="scale(0.015625)"/>
       </defs>
       <use xlink:href="#DejaVuSans-4c"/>
       <use xlink:href="#DejaVuSans-6f" x="53.962891"/>
       <use xlink:href="#DejaVuSans-63" x="115.144531"/>
       <use xlink:href="#DejaVuSans-61" x="170.125"/>
       <use xlink:href="#DejaVuSans-6c" x="231.404297"/>
       <use xlink:href="#DejaVuSans-20" x="259.1875"/>
       <use xlink:href="#DejaVuSans-56" x="290.974609"/>
       <use xlink:href="#DejaVuSans-4c" x="359.382812"/>
       <use xlink:href="#DejaVuSans-4d" x="415.095703"/>
      </g>
     </g>
    </g>
    <g id="xtick_3">
     <g id="text_3">
      <!-- Cloud VLM -->
      <g style="fill: #262626" transform="translate(433.402813 400.15625)scale(0.1 -0.1)">
       <defs>
        <path id="DejaVuSans-43" d="M 4122 4306 
L 4122 3641 
Q 3803 3938 3442 4084 
Q 3081 4231 2675 4231 
Q 1875 4231 1450 3742 
Q 1025 3253 1025 2328 
Q 1025 1406 1450 917 
Q 1875 428 2675 428 
Q 3081 428 3442 575 
Q 3803 722 4122 1019 
L 4122 359 
Q 3791 134 3420 21 
Q 3050 -91 2638 -91 
Q 1578 -91 968 557 
Q 359 1206 359 2328 
Q 359 3453 968 4101 
Q 1578 4750 2638 4750 
Q 3056 4750 3426 4639 
Q 3797 4528 4122 4306 
z
" transform="scale(0.015625)"/>
        <path id="DejaVuSans-75" d="M 544 1381 
L 544 3500 
L 1119 3500 
L 1119 1403 
Q 1119 906 1312 657 
Q 1506 409 1894 409 
Q 2359 409 2629 706 
Q 2900 1003 2900 1516 
L 2900 3500 
L 3475 3500 
L 3475 0 
L 2900 0 
L 2900 538 
Q 2691 219 2414 64 
Q 2138 -91 1772 -91 
Q 1169 -91 856 284 
Q 544 659 544 1381 
z
M 1991 3584 
L 1991 3584 
z
" transform="scale(0.015625)"/>
        <path id="DejaVuSans-64" d="M 2906 2969 
L 2906 4863 
L 3481 4863 
L 3481 0 
L 2906 0 
L 2906 525 
Q 2725 213 2448 61 
Q 2172 -91 1784 -91 
Q 1150 -91 751 415 
Q 353 922 353 1747 
Q 353 2572 751 3078 
Q 1150 3584 1784 3584 
Q 2172 3584 2448 3432 
Q 2725 3281 2906 2969 
z
M 947 1747 
Q 947 1113 1208 752 
Q 1469 391 1925 391 
Q 2381 391 2643 752 
Q 2906 1113 2906 1747 
Q 2906 2381 2643 2742 
Q 2381 3103 1925 3103 
Q 1469 3103 1208 2742 
Q 947 2381 947 1747 
z
" transform="scale(0.015625)"/>
       </defs>
       <use xlink:href="#DejaVuSans-43"/>
       <use xlink:href="#DejaVuSans-6c" x="69.824219"/>
       <use xlink:href="#DejaVuSans-6f" x="97.607422"/>
       <use xlink:href="#DejaVuSans-75" x="158.789062"/>
       <use xlink:href="#DejaVuSans-64" x="222.167969"/>
       <use xlink:href="#DejaVuSans-20" x="285.644531"/>
       <use xlink:href="#DejaVuSans-56" x="317.431641"/>
       <use xlink:href="#DejaVuSans-4c" x="385.839844"/>
       <use xlink:href="#DejaVuSans-4d" x="441.552734"/>
      </g>
     </g>
    </g>
    <g id="xtick_4">
     <g id="text_4">
      <!-- No Tracking -->
      <g style="fill: #262626" transform="translate(594.950938 400.15625)scale(0.1 -0.1)">
       <defs>
        <path id="DejaVuSans-54" d="M -19 4666 
L 3928 4666 
L 3928 4134 
L 2272 4134 
L 2272 0 
L 1638 0 
L 1638 4134 
L -19 4134 
L -19 4666 
z
" transform="scale(0.015625)"/>
        <path id="DejaVuSans-72" d="M 2631 2963 
Q 2534 3019 2420 3045 
Q 2306 3072 2169 3072 
Q 1681 3072 1420 2755 
Q 1159 2438 1159 1844 
L 1159 0 
L 581 0 
L 581 3500 
L 1159 3500 
L 1159 2956 
Q 1341 3275 1631 3429 
Q 1922 3584 2338 3584 
Q 2397 3584 2469 3576 
Q 2541 3569 2628 3553 
L 2631 2963 
z
" transform="scale(0.015625)"/>
        <path id="DejaVuSans-6b" d="M 581 4863 
L 1159 4863 
L 1159 1991 
L 2875 3500 
L 3609 3500 
L 1753 1863 
L 3688 0 
L 2938 0 
L 1159 1709 
L 1159 0 
L 581 0 
L 581 4863 
z
" transform="scale(0.015625)"/>
        <path id="DejaVuSans-69" d="M 603 3500 
L 1178 3500 
L 1178 0 
L 603 0 
L 603 3500 
z
M 603 4863 
L 1178 4863 
L 1178 4134 
L 603 4134 
L 603 4863 
z
" transform="scale(0.015625)"/>
        <path id="DejaVuSans-6e" d="M 3513 2113 
L 3513 0 
L 2938 0 
L 2938 2094 
Q 2938 2591 2744 2837 
Q 2550 3084 2163 3084 
Q 1697 3084 1428 2787 
Q 1159 2491 1159 1978 
L 1159 0 
L 581 0 
L 581 3500 
L 1159 3500 
L 1159 2956 
Q 1366 3272 1645 3428 
Q 1925 3584 2291 3584 
Q 2894 3584 3203 3211 
Q 3513 2838 3513 2113 
z
" transform="scale(0.015625)"/>
        <path id="DejaVuSans-67" d="M 2906 1791 
Q 2906 2416 2648 2759 
Q 2391 3103 1925 3103 
Q 1463 3103 1205 2759 
Q 947 2416 947 1791 
Q 947 1169 1205 825 
Q 1463 481 1925 481 
Q 2391 481 2648 825 
Q 2906 1169 2906 1791 
z
M 3481 434 
Q 3481 -459 3084 -895 
Q 2688 -1331 1869 -1331 
Q 1566 -1331 1297 -1286 
Q 1028 -1241 775 -1147 
L 775 -588 
Q 1028 -725 1275 -790 
Q 1522 -856 1778 -856 
Q 2344 -856 2625 -561 
Q 2906 -266 2906 331 
L 2906 616 
Q 2728 306 2450 153 
Q 2172 0 1784 0 
Q 1141 0 747 490 
Q 353 981 353 1791 
Q 353 2603 747 3093 
Q 1141 3584 1784 3584 
Q 2172 3584 2450 3431 
Q 2728 3278 2906 2969 
L 2906 3500 
L 3481 3500 
L 3481 434 
z
" transform="scale(0.015625)"/>
       </defs>
       <use xlink:href="#DejaVuSans-4e"/>
       <use xlink:href="#DejaVuSans-6f" x="74.804688"/>
       <use xlink:href="#DejaVuSans-20" x="135.986328"/>
       <use xlink:href="#DejaVuSans-54" x="167.773438"/>
       <use xlink:href="#DejaVuSans-72" x="214.107422"/>
       <use xlink:href="#DejaVuSans-61" x="255.220703"/>
       <use xlink:href="#DejaVuSans-63" x="316.5"/>
       <use xlink:href="#DejaVuSans-6b" x="371.480469"/>
       <use xlink:href="#DejaVuSans-69" x="429.390625"/>
       <use xlink:href="#DejaVuSans-6e" x="457.173828"/>
       <use xlink:href="#DejaVuSans-67" x="520.552734"/>
      </g>
     </g>
    </g>
    <g id="text_5">
     <!-- Experiment -->
     <g style="fill: #262626" transform="translate(342.948438 415.354062)scale(0.12 -0.12)">
      <defs>
       <path id="DejaVuSans-45" d="M 628 4666 
L 3578 4666 
L 3578 4134 
L 1259 4134 
L 1259 2753 
L 3481 2753 
L 3481 2222 
L 1259 2222 
L 1259 531 
L 3634 531 
L 3634 0 
L 628 0 
L 628 4666 
z
" transform="scale(0.015625)"/>
       <path id="DejaVuSans-78" d="M 3513 3500 
L 2247 1797 
L 3578 0 
L 2900 0 
L 1881 1375 
L 863 0 
L 184 0 
L 1544 1831 
L 300 3500 
L 978 3500 
L 1906 2253 
L 2834 3500 
L 3513 3500 
z
" transform="scale(0.015625)"/>
       <path id="DejaVuSans-70" d="M 1159 525 
L 1159 -1331 
L 581 -1331 
L 581 3500 
L 1159 3500 
L 1159 2969 
Q 1341 3281 1617 3432 
Q 1894 3584 2278 3584 
Q 2916 3584 3314 3078 
Q 3713 2572 3713 1747 
Q 3713 922 3314 415 
Q 2916 -91 2278 -91 
Q 1894 -91 1617 61 
Q 1341 213 1159 525 
z
M 3116 1747 
Q 3116 2381 2855 2742 
Q 2594 3103 2138 3103 
Q 1681 3103 1420 2742 
Q 1159 2381 1159 1747 
Q 1159 1113 1420 752 
Q 1681 391 2138 391 
Q 2594 391 2855 752 
Q 3116 1113 3116 1747 
z
" transform="scale(0.015625)"/>
       <path id="DejaVuSans-65" d="M 3597 1894 
L 3597 1613 
L 953 1613 
Q 991 1019 1311 708 
Q 1631 397 2203 397 
Q 2534 397 2845 478 
Q 3156 559 3463 722 
L 3463 178 
Q 3153 47 2828 -22 
Q 2503 -91 2169 -91 
Q 1331 -91 842 396 
Q 353 884 353 1716 
Q 353 2575 817 3079 
Q 1281 3584 2069 3584 
Q 2775 3584 3186 3129 
Q 3597 2675 3597 1894 
z
M 3022 2063 
Q 3016 2534 2758 2815 
Q 2500 3097 2075 3097 
Q 1594 3097 1305 2825 
Q 1016 2553 972 2059 
L 3022 2063 
z
" transform="scale(0.015625)"/>
       <path id="DejaVuSans-6d" d="M 3328 2828 
Q 3544 3216 3844 3400 
Q 4144 3584 4550 3584 
Q 5097 3584 5394 3201 
Q 5691 2819 5691 2113 
L 5691 0 
L 5113 0 
L 5113 2094 
Q 5113 2597 4934 2840 
Q 4756 3084 4391 3084 
Q 3944 3084 3684 2787 
Q 3425 2491 3425 1978 
L 3425 0 
L 2847 0 
L 2847 2094 
Q 2847 2600 2669 2842 
Q 2491 3084 2119 3084 
Q 1678 3084 1418 2786 
Q 1159 2488 1159 1978 
L 1159 0 
L 581 0 
L 581 3500 
L 1159 3500 
L 1159 2956 
Q 1356 3278 1631 3431 
Q 1906 3584 2284 3584 
Q 2666 3584 2933 3390 
Q 3200 3197 3328 2828 
z
" transform="scale(0.015625)"/>
       <path id="DejaVuSans-74" d="M 1172 4494 
L 1172 3500 
L 2356 3500 
L 2356 3053 
L 1172 3053 
L 1172 1153 
Q 1172 725 1289 603 
Q 1406 481 1766 481 
L 2356 481 
L 2356 0 
L 1766 0 
Q 1100 0 847 248 
Q 594 497 594 1153 
L 594 3053 
L 172 3053 
L 172 3500 
L 594 3500 
L 594 4494 
L 1172 4494 
z
" transform="scale(0.015625)"/>
      </defs>
      <use xlink:href="#DejaVuSans-45"/>
      <use xlink:href="#DejaVuSans-78" x="63.183594"/>
      <use xlink:href="#DejaVuSans-70" x="122.363281"/>
      <use xlink:href="#DejaVuSans-65" x="185.839844"/>
      <use xlink:href="#DejaVuSans-72" x="247.363281"/>
      <use xlink:href="#DejaVuSans-69" x="288.476562"/>
      <use xlink:href="#DejaVuSans-6d" x="316.259766"/>
      <use xlink:href="#DejaVuSans-65" x="413.671875"/>
      <use xlink:href="#DejaVuSans-6e" x="475.195312"/>
      <use xlink:href="#DejaVuSans-74" x="538.574219"/>
     </g>
    </g>
   </g>
   <g id="matplotlib.axis_2">
    <g id="ytick_1">
     <g id="line2d_1">
      <path d="M 48.90125 385.557812 
L 706.33125 385.557812 
" clip-path="url(#pd5eb58dab2)" style="fill: none; stroke: #cccccc; stroke-opacity: 0.3; stroke-width: 0.8; stroke-linecap: round"/>
     </g>
     <g id="text_6">
      <!-- 0 -->
      <g style="fill: #262626" transform="translate(35.53875 389.357031)scale(0.1 -0.1)">
       <defs>
        <path id="DejaVuSans-30" d="M 2034 4250 
Q 1547 4250 1301 3770 
Q 1056 3291 1056 2328 
Q 1056 1369 1301 889 
Q 1547 409 2034 409 
Q 2525 409 2770 889 
Q 3016 1369 3016 2328 
Q 3016 3291 2770 3770 
Q 2525 4250 2034 4250 
z
M 2034 4750 
Q 2819 4750 3233 4129 
Q 3647 3509 3647 2328 
Q 3647 1150 3233 529 
Q 2819 -91 2034 -91 
Q 1250 -91 836 529 
Q 422 1150 422 2328 
Q 422 3509 836 4129 
Q 1250 4750 2034 4750 
z
" transform="scale(0.015625)"/>
       </defs>
       <use xlink:href="#DejaVuSans-30"/>
      </g>
     </g>
    </g>
    <g id="ytick_2">
     <g id="line2d_2">
      <path d="M 48.90125 316.658765 
L 706.33125 316.658765 
" clip-path="url(#pd5eb58dab2)" style="fill: none; stroke: #cccccc; stroke-opacity: 0.3; stroke-width: 0.8; stroke-linecap: round"/>
     </g>
     <g id="text_7">
      <!-- 20 -->
      <g style="fill: #262626" transform="translate(29.17625 320.457984)scale(0.1 -0.1)">
       <defs>
        <path id="DejaVuSans-32" d="M 1228 531 
L 3431 531 
L 3431 0 
L 469 0 
L 469 531 
Q 828 903 1448 1529 
Q 2069 2156 2228 2338 
Q 2531 2678 2651 2914 
Q 2772 3150 2772 3378 
Q 2772 3750 2511 3984 
Q 2250 4219 1831 4219 
Q 1534 4219 1204 4116 
Q 875 4013 500 3803 
L 500 4441 
Q 881 4594 1212 4672 
Q 1544 4750 1819 4750 
Q 2544 4750 2975 4387 
Q 3406 4025 3406 3419 
Q 3406 3131 3298 2873 
Q 3191 2616 2906 2266 
Q 2828 2175 2409 1742 
Q 1991 1309 1228 531 
z
" transform="scale(0.015625)"/>
       </defs>
       <use xlink:href="#DejaVuSans-32"/>
       <use xlink:href="#DejaVuSans-30" x="63.623047"/>
      </g>
     </g>
    </g>
    <g id="ytick_3">
     <g id="line2d_3">
      <path d="M 48.90125 247.759717 
L 706.33125 247.759717 
" clip-path="url(#pd5eb58dab2)" style="fill: none; stroke: #cccccc; stroke-opacity: 0.3; stroke-width: 0.8; stroke-linecap: round"/>
     </g>
     <g id="text_8">
      <!-- 40 -->
      <g style="fill: #262626" transform="translate(29.17625 251.558936)scale(0.1 -0.1)">
       <defs>
        <path id="DejaVuSans-34" d="M 2419 4116 
L 825 1625 
L 2419 1625 
L 2419 4116 
z
M 2253 4666 
L 3047 4666 
L 3047 1625 
L 3713 1625 
L 3713 1100 
L 3047 1100 
L 3047 0 
L 2419 0 
L 2419 1100 
L 313 1100 
L 313 1709 
L 2253 4666 
z
" transform="scale(0.015625)"/>
       </defs>
       <use xlink:href="#DejaVuSans-34"/>
       <use xlink:href="#DejaVuSans-30" x="63.623047"/>
      </g>
     </g>
    </g>
    <g id="ytick_4">
     <g id="line2d_4">
      <path d="M 48.90125 178.86067 
L 706.33125 178.86067 
" clip-path="url(#pd5eb58dab2)" style="fill: none; stroke: #cccccc; stroke-opacity: 0.3; stroke-width: 0.8; stroke-linecap: round"/>
     </g>
     <g id="text_9">
      <!-- 60 -->
      <g style="fill: #262626" transform="translate(29.17625 182.659888)scale(0.1 -0.1)">
       <defs>
        <path id="DejaVuSans-36" d="M 2113 2584 
Q 1688 2584 1439 2293 
Q 1191 2003 1191 1497 
Q 1191 994 1439 701 
Q 1688 409 2113 409 
Q 2538 409 2786 701 
Q 3034 994 3034 1497 
Q 3034 2003 2786 2293 
Q 2538 2584 2113 2584 
z
M 3366 4563 
L 3366 3988 
Q 3128 4100 2886 4159 
Q 2644 4219 2406 4219 
Q 1781 4219 1451 3797 
Q 1122 3375 1075 2522 
Q 1259 2794 1537 2939 
Q 1816 3084 2150 3084 
Q 2853 3084 3261 2657 
Q 3669 2231 3669 1497 
Q 3669 778 3244 343 
Q 2819 -91 2113 -91 
Q 1303 -91 875 529 
Q 447 1150 447 2328 
Q 447 3434 972 4092 
Q 1497 4750 2381 4750 
Q 2619 4750 2861 4703 
Q 3103 4656 3366 4563 
z
" transform="scale(0.015625)"/>
       </defs>
       <use xlink:href="#DejaVuSans-36"/>
       <use xlink:href="#DejaVuSans-30" x="63.623047"/>
      </g>
     </g>
    </g>
    <g id="ytick_5">
     <g id="line2d_5">
      <path d="M 48.90125 109.961622 
L 706.33125 109.961622 
" clip-path="url(#pd5eb58dab2)" style="fill: none; stroke: #cccccc; stroke-opacity: 0.3; stroke-width: 0.8; stroke-linecap: round"/>
     </g>
     <g id="text_10">
      <!-- 80 -->
      <g style="fill: #262626" transform="translate(29.17625 113.760841)scale(0.1 -0.1)">
       <defs>
        <path id="DejaVuSans-38" d="M 2034 2216 
Q 1584 2216 1326 1975 
Q 1069 1734 1069 1313 
Q 1069 891 1326 650 
Q 1584 409 2034 409 
Q 2484 409 2743 651 
Q 3003 894 3003 1313 
Q 3003 1734 2745 1975 
Q 2488 2216 2034 2216 
z
M 1403 2484 
Q 997 2584 770 2862 
Q 544 3141 544 3541 
Q 544 4100 942 4425 
Q 1341 4750 2034 4750 
Q 2731 4750 3128 4425 
Q 3525 4100 3525 3541 
Q 3525 3141 3298 2862 
Q 3072 2584 2669 2484 
Q 3125 2378 3379 2068 
Q 3634 1759 3634 1313 
Q 3634 634 3220 271 
Q 2806 -91 2034 -91 
Q 1263 -91 848 271 
Q 434 634 434 1313 
Q 434 1759 690 2068 
Q 947 2378 1403 2484 
z
M 1172 3481 
Q 1172 3119 1398 2916 
Q 1625 2713 2034 2713 
Q 2441 2713 2670 2916 
Q 2900 3119 2900 3481 
Q 2900 3844 2670 4047 
Q 2441 4250 2034 4250 
Q 1625 4250 1398 4047 
Q 1172 3844 1172 3481 
z
" transform="scale(0.015625)"/>
       </defs>
       <use xlink:href="#DejaVuSans-38"/>
       <use xlink:href="#DejaVuSans-30" x="63.623047"/>
      </g>
     </g>
    </g>
    <g id="ytick_6">
     <g id="line2d_6">
      <path d="M 48.90125 41.062574 
L 706.33125 41.062574 
" clip-path="url(#pd5eb58dab2)" style="fill: none; stroke: #cccccc; stroke-opacity: 0.3; stroke-width: 0.8; stroke-linecap: round"/>
     </g>
     <g id="text_11">
      <!-- 100 -->
      <g style="fill: #262626" transform="translate(22.81375 44.861793)scale(0.1 -0.1)">
       <defs>
        <path id="DejaVuSans-31" d="M 794 531 
L 1825 531 
L 1825 4091 
L 703 3866 
L 703 4441 
L 1819 4666 
L 2450 4666 
L 2450 531 
L 3481 531 
L 3481 0 
L 794 0 
L 794 531 
z
" transform="scale(0.015625)"/>
       </defs>
       <use xlink:href="#DejaVuSans-31"/>
       <use xlink:href="#DejaVuSans-30" x="63.623047"/>
       <use xlink:href="#DejaVuSans-30" x="127.246094"/>
      </g>
     </g>
    </g>
    <g id="text_12">
     <!-- Personal Space Compliance (%) -->
     <g style="fill: #262626" transform="translate(16.318125 299.9075)rotate(-90)scale(0.12 -0.12)">
      <defs>
       <path id="DejaVuSans-50" d="M 1259 4147 
L 1259 2394 
L 2053 2394 
Q 2494 2394 2734 2622 
Q 2975 2850 2975 3272 
Q 2975 3691 2734 3919 
Q 2494 4147 2053 4147 
L 1259 4147 
z
M 628 4666 
L 2053 4666 
Q 2838 4666 3239 4311 
Q 3641 3956 3641 3272 
Q 3641 2581 3239 2228 
Q 2838 1875 2053 1875 
L 1259 1875 
L 1259 0 
L 628 0 
L 628 4666 
z
" transform="scale(0.015625)"/>
       <path id="DejaVuSans-73" d="M 2834 3397 
L 2834 2853 
Q 2591 2978 2328 3040 
Q 2066 3103 1784 3103 
Q 1356 3103 1142 2972 
Q 928 2841 928 2578 
Q 928 2378 1081 2264 
Q 1234 2150 1697 2047 
L 1894 2003 
Q 2506 1872 2764 1633 
Q 3022 1394 3022 966 
Q 3022 478 2636 193 
Q 2250 -91 1575 -91 
Q 1294 -91 989 -36 
Q 684 19 347 128 
L 347 722 
Q 666 556 975 473 
Q 1284 391 1588 391 
Q 1994 391 2212 530 
Q 2431 669 2431 922 
Q 2431 1156 2273 1281 
Q 2116 1406 1581 1522 
L 1381 1569 
Q 847 1681 609 1914 
Q 372 2147 372 2553 
Q 372 3047 722 3315 
Q 1072 3584 1716 3584 
Q 2034 3584 2315 3537 
Q 2597 3491 2834 3397 
z
" transform="scale(0.015625)"/>
       <path id="DejaVuSans-53" d="M 3425 4513 
L 3425 3897 
Q 3066 4069 2747 4153 
Q 2428 4238 2131 4238 
Q 1616 4238 1336 4038 
Q 1056 3838 1056 3469 
Q 1056 3159 1242 3001 
Q 1428 2844 1947 2747 
L 2328 2669 
Q 3034 2534 3370 2195 
Q 3706 1856 3706 1288 
Q 3706 609 3251 259 
Q 2797 -91 1919 -91 
Q 1588 -91 1214 -16 
Q 841 59 441 206 
L 441 856 
Q 825 641 1194 531 
Q 1563 422 1919 422 
Q 2459 422 2753 634 
Q 3047 847 3047 1241 
Q 3047 1584 2836 1778 
Q 2625 1972 2144 2069 
L 1759 2144 
Q 1053 2284 737 2584 
Q 422 2884 422 3419 
Q 422 4038 858 4394 
Q 1294 4750 2059 4750 
Q 2388 4750 2728 4690 
Q 3069 4631 3425 4513 
z
" transform="scale(0.015625)"/>
       <path id="DejaVuSans-28" d="M 1984 4856 
Q 1566 4138 1362 3434 
Q 1159 2731 1159 2009 
Q 1159 1288 1364 580 
Q 1569 -128 1984 -844 
L 1484 -844 
Q 1016 -109 783 600 
Q 550 1309 550 2009 
Q 550 2706 781 3412 
Q 1013 4119 1484 4856 
L 1984 4856 
z
" transform="scale(0.015625)"/>
       <path id="DejaVuSans-25" d="M 4653 2053 
Q 4381 2053 4226 1822 
Q 4072 1591 4072 1178 
Q 4072 772 4226 539 
Q 4381 306 4653 306 
Q 4919 306 5073 539 
Q 5228 772 5228 1178 
Q 5228 1588 5073 1820 
Q 4919 2053 4653 2053 
z
M 4653 2450 
Q 5147 2450 5437 2106 
Q 5728 1763 5728 1178 
Q 5728 594 5436 251 
Q 5144 -91 4653 -91 
Q 4153 -91 3862 251 
Q 3572 594 3572 1178 
Q 3572 1766 3864 2108 
Q 4156 2450 4653 2450 
z
M 1428 4353 
Q 1159 4353 1004 4120 
Q 850 3888 850 3481 
Q 850 3069 1003 2837 
Q 1156 2606 1428 2606 
Q 1700 2606 1854 2837 
Q 2009 3069 2009 3481 
Q 2009 3884 1853 4118 
Q 1697 4353 1428 4353 
z
M 4250 4750 
L 4750 4750 
L 1831 -91 
L 1331 -91 
L 4250 4750 
z
M 1428 4750 
Q 1922 4750 2215 4408 
Q 2509 4066 2509 3481 
Q 2509 2891 2217 2550 
Q 1925 2209 1428 2209 
Q 931 2209 642 2551 
Q 353 2894 353 3481 
Q 353 4063 643 4406 
Q 934 4750 1428 4750 
z
" transform="scale(0.015625)"/>
       <path id="DejaVuSans-29" d="M 513 4856 
L 1013 4856 
Q 1481 4119 1714 3412 
Q 1947 2706 1947 2009 
Q 1947 1309 1714 600 
Q 1481 -109 1013 -844 
L 513 -844 
Q 928 -128 1133 580 
Q 1338 1288 1338 2009 
Q 1338 2731 1133 3434 
Q 928 4138 513 4856 
z
" transform="scale(0.015625)"/>
      </defs>
      <use xlink:href="#DejaVuSans-50"/>
      <use xlink:href="#DejaVuSans-65" x="56.677734"/>
      <use xlink:href="#DejaVuSans-72" x="118.201172"/>
      <use xlink:href="#DejaVuSans-73" x="159.314453"/>
      <use xlink:href="#DejaVuSans-6f" x="211.414062"/>
      <use xlink:href="#DejaVuSans-6e" x="272.595703"/>
      <use xlink:href="#DejaVuSans-61" x="335.974609"/>
      <use xlink:href="#DejaVuSans-6c" x="397.253906"/>
      <use xlink:href="#DejaVuSans-20" x="425.037109"/>
      <use xlink:href="#DejaVuSans-53" x="456.824219"/>
      <use xlink:href="#DejaVuSans-70" x="520.300781"/>
      <use xlink:href="#DejaVuSans-61" x="583.777344"/>
      <use xlink:href="#DejaVuSans-63" x="645.056641"/>
      <use xlink:href="#DejaVuSans-65" x="700.037109"/>
      <use xlink:href="#DejaVuSans-20" x="761.560547"/>
      <use xlink:href="#DejaVuSans-43" x="793.347656"/>
      <use xlink:href="#DejaVuSans-6f" x="863.171875"/>
      <use xlink:href="#DejaVuSans-6d" x="924.353516"/>
      <use xlink:href="#DejaVuSans-70" x="1021.765625"/>
      <use xlink:href="#DejaVuSans-6c" x="1085.242188"/>
      <use xlink:href="#DejaVuSans-69" x="1113.025391"/>
      <use xlink:href="#DejaVuSans-61" x="1140.808594"/>
      <use xlink:href="#DejaVuSans-6e" x="1202.087891"/>
      <use xlink:href="#DejaVuSans-63" x="1265.466797"/>
      <use xlink:href="#DejaVuSans-65" x="1320.447266"/>
      <use xlink:href="#DejaVuSans-20" x="1381.970703"/>
      <use xlink:href="#DejaVuSans-28" x="1413.757812"/>
      <use xlink:href="#DejaVuSans-25" x="1452.771484"/>
      <use xlink:href="#DejaVuSans-29" x="1547.791016"/>
     </g>
    </g>
   </g>
   <g id="PolyCollection_1">
    <defs>
     <path id="m6fc7ae7902" d="M 132.400023 -74.940435 
L 129.759977 -74.940435 
L 129.803898 -78.062119 
L 129.927085 -81.183802 
L 130.106542 -84.305486 
L 130.311852 -87.427169 
L 130.513525 -90.548853 
L 130.689587 -93.670537 
L 130.828536 -96.79222 
L 130.928631 -99.913904 
L 130.994846 -103.035588 
L 131.035228 -106.157271 
L 131.057993 -109.278955 
L 131.069866 -112.400638 
L 131.075558 -115.522322 
L 131.077942 -118.644006 
L 131.078455 -121.765689 
L 131.077437 -124.887373 
L 131.074224 -128.009056 
L 131.066966 -131.13074 
L 131.052236 -134.252424 
L 131.024634 -137.374107 
L 130.976734 -140.495791 
L 130.899816 -143.617475 
L 130.78573 -146.739158 
L 130.629782 -149.860842 
L 130.433849 -152.982525 
L 130.208254 -156.104209 
L 129.97088 -159.225893 
L 129.742872 -162.347576 
L 129.542016 -165.46926 
L 129.376517 -168.590944 
L 129.242373 -171.712627 
L 129.126181 -174.834311 
L 129.012579 -177.955994 
L 128.893053 -181.077678 
L 128.771996 -184.199362 
L 128.667233 -187.321045 
L 128.604787 -190.442729 
L 128.610048 -193.564412 
L 128.698559 -196.686096 
L 128.869259 -199.80778 
L 129.10174 -202.929463 
L 129.357771 -206.051147 
L 129.586334 -209.172831 
L 129.730999 -212.294514 
L 129.738524 -215.416198 
L 129.567812 -218.537881 
L 129.198515 -221.659565 
L 128.638234 -224.781249 
L 127.926516 -227.902932 
L 127.133326 -231.024616 
L 126.350044 -234.146299 
L 125.672857 -237.267983 
L 125.181035 -240.389667 
L 124.915268 -243.51135 
L 124.862555 -246.633034 
L 124.953545 -249.754718 
L 125.07536 -252.876401 
L 125.098405 -255.998085 
L 124.910518 -259.119768 
L 124.448093 -262.241452 
L 123.713366 -265.363136 
L 122.771248 -268.484819 
L 121.726718 -271.606503 
L 120.691755 -274.728186 
L 119.754935 -277.84987 
L 118.964763 -280.971554 
L 118.330605 -284.093237 
L 117.836885 -287.214921 
L 117.461335 -290.336605 
L 117.188504 -293.458288 
L 117.014039 -296.579972 
L 116.940176 -299.701655 
L 116.966204 -302.823339 
L 117.078762 -305.945023 
L 117.246467 -309.066706 
L 117.421879 -312.18839 
L 117.551173 -315.310074 
L 117.588521 -318.431757 
L 117.509571 -321.553441 
L 117.318339 -324.675124 
L 117.044778 -327.796808 
L 116.734729 -330.918492 
L 116.436951 -334.040175 
L 116.191587 -337.161859 
L 116.020895 -340.283542 
L 115.918987 -343.405226 
L 115.835594 -346.52691 
L 115.651853 -349.648593 
L 115.153606 -352.770277 
L 114.017631 -355.891961 
L 111.83375 -359.013644 
L 108.18451 -362.135328 
L 102.787735 -365.257011 
L 95.675138 -368.378695 
L 87.342986 -371.500379 
L 78.790676 -374.622062 
L 71.383257 -377.743746 
L 66.539881 -380.865429 
L 65.337 -383.987113 
L 196.823 -383.987113 
L 196.823 -383.987113 
L 195.620119 -380.865429 
L 190.776743 -377.743746 
L 183.369324 -374.622062 
L 174.817014 -371.500379 
L 166.484862 -368.378695 
L 159.372265 -365.257011 
L 153.97549 -362.135328 
L 150.32625 -359.013644 
L 148.142369 -355.891961 
L 147.006394 -352.770277 
L 146.508147 -349.648593 
L 146.324406 -346.52691 
L 146.241013 -343.405226 
L 146.139105 -340.283542 
L 145.968413 -337.161859 
L 145.723049 -334.040175 
L 145.425271 -330.918492 
L 145.115222 -327.796808 
L 144.841661 -324.675124 
L 144.650429 -321.553441 
L 144.571479 -318.431757 
L 144.608827 -315.310074 
L 144.738121 -312.18839 
L 144.913533 -309.066706 
L 145.081238 -305.945023 
L 145.193796 -302.823339 
L 145.219824 -299.701655 
L 145.145961 -296.579972 
L 144.971496 -293.458288 
L 144.698665 -290.336605 
L 144.323115 -287.214921 
L 143.829395 -284.093237 
L 143.195237 -280.971554 
L 142.405065 -277.84987 
L 141.468245 -274.728186 
L 140.433282 -271.606503 
L 139.388752 -268.484819 
L 138.446634 -265.363136 
L 137.711907 -262.241452 
L 137.249482 -259.119768 
L 137.061595 -255.998085 
L 137.08464 -252.876401 
L 137.206455 -249.754718 
L 137.297445 -246.633034 
L 137.244732 -243.51135 
L 136.978965 -240.389667 
L 136.487143 -237.267983 
L 135.809956 -234.146299 
L 135.026674 -231.024616 
L 134.233484 -227.902932 
L 133.521766 -224.781249 
L 132.961485 -221.659565 
L 132.592188 -218.537881 
L 132.421476 -215.416198 
L 132.429001 -212.294514 
L 132.573666 -209.172831 
L 132.802229 -206.051147 
L 133.05826 -202.929463 
L 133.290741 -199.80778 
L 133.461441 -196.686096 
L 133.549952 -193.564412 
L 133.555213 -190.442729 
L 133.492767 -187.321045 
L 133.388004 -184.199362 
L 133.266947 -181.077678 
L 133.147421 -177.955994 
L 133.033819 -174.834311 
L 132.917627 -171.712627 
L 132.783483 -168.590944 
L 132.617984 -165.46926 
L 132.417128 -162.347576 
L 132.18912 -159.225893 
L 131.951746 -156.104209 
L 131.726151 -152.982525 
L 131.530218 -149.860842 
L 131.37427 -146.739158 
L 131.260184 -143.617475 
L 131.183266 -140.495791 
L 131.135366 -137.374107 
L 131.107764 -134.252424 
L 131.093034 -131.13074 
L 131.085776 -128.009056 
L 131.082563 -124.887373 
L 131.081545 -121.765689 
L 131.082058 -118.644006 
L 131.084442 -115.522322 
L 131.090134 -112.400638 
L 131.102007 -109.278955 
L 131.124772 -106.157271 
L 131.165154 -103.035588 
L 131.231369 -99.913904 
L 131.331464 -96.79222 
L 131.470413 -93.670537 
L 131.646475 -90.548853 
L 131.848148 -87.427169 
L 132.053458 -84.305486 
L 132.232915 -81.183802 
L 132.356102 -78.062119 
L 132.400023 -74.940435 
z
" style="stroke: #464646; stroke-opacity: 0.7; stroke-width: 1.25"/>
    </defs>
    <g clip-path="url(#pd5eb58dab2)">
     <use xlink:href="#m6fc7ae7902" x="0" y="425.049687" style="fill: #5ce260; fill-opacity: 0.7; stroke: #464646; stroke-opacity: 0.7; stroke-width: 1.25"/>
    </g>
   </g>
   <g id="PolyCollection_2">
    <defs>
     <path id="mad929d8041" d="M 298.973113 -129.301784 
L 291.901887 -129.301784 
L 291.671353 -131.874363 
L 291.522636 -134.446942 
L 291.448334 -137.019521 
L 291.441895 -139.5921 
L 291.502555 -142.164679 
L 291.635749 -144.737258 
L 291.848728 -147.309837 
L 292.143508 -149.882416 
L 292.510567 -152.454995 
L 292.92619 -155.027574 
L 293.354542 -157.600154 
L 293.753451 -160.172733 
L 294.081612 -162.745312 
L 294.305 -165.317891 
L 294.401287 -167.89047 
L 294.362286 -170.463049 
L 294.195014 -173.035628 
L 293.921716 -175.608207 
L 293.578433 -178.180786 
L 293.211158 -180.753365 
L 292.868879 -183.325944 
L 292.593984 -185.898523 
L 292.412067 -188.471103 
L 292.324307 -191.043682 
L 292.305469 -193.616261 
L 292.309113 -196.18884 
L 292.279184 -198.761419 
L 292.164831 -201.333998 
L 291.93405 -203.906577 
L 291.581991 -206.479156 
L 291.13156 -209.051735 
L 290.626354 -211.624314 
L 290.118394 -214.196893 
L 289.65457 -216.769472 
L 289.265916 -219.342052 
L 288.962717 -221.914631 
L 288.736404 -224.48721 
L 288.566874 -227.059789 
L 288.431961 -229.632368 
L 288.315054 -232.204947 
L 288.207668 -234.777526 
L 288.105918 -237.350105 
L 288.002675 -239.922684 
L 287.879373 -242.495263 
L 287.702041 -245.067842 
L 287.424606 -247.640422 
L 286.999349 -250.213001 
L 286.391052 -252.78558 
L 285.589222 -255.358159 
L 284.613018 -257.930738 
L 283.50606 -260.503317 
L 282.32222 -263.075896 
L 281.107131 -265.648475 
L 279.882204 -268.221054 
L 278.637326 -270.793633 
L 277.335376 -273.366212 
L 275.927042 -275.938791 
L 274.369855 -278.511371 
L 272.642836 -281.08395 
L 270.74914 -283.656529 
L 268.703798 -286.229108 
L 266.510693 -288.801687 
L 264.139282 -291.374266 
L 261.514229 -293.946845 
L 258.52818 -296.519424 
L 255.07976 -299.092003 
L 251.128212 -301.664582 
L 246.747095 -304.237161 
L 242.156041 -306.809741 
L 237.713988 -309.38232 
L 233.868943 -311.954899 
L 231.074318 -314.527478 
L 229.6945 -317.100057 
L 229.927051 -319.672636 
L 231.76354 -322.245215 
L 234.99761 -324.817794 
L 239.273289 -327.390373 
L 244.155492 -329.962952 
L 249.201863 -332.535531 
L 254.020371 -335.10811 
L 258.306133 -337.68069 
L 261.858834 -340.253269 
L 264.585697 -342.825848 
L 266.49421 -345.398427 
L 267.676242 -347.971006 
L 268.283873 -350.543585 
L 268.498712 -353.116164 
L 268.499693 -355.688743 
L 268.436981 -358.261322 
L 268.419045 -360.833901 
L 268.515639 -363.40648 
L 268.773108 -365.979059 
L 269.233254 -368.551639 
L 269.945784 -371.124218 
L 270.967784 -373.696797 
L 272.350103 -376.269376 
L 274.116734 -378.841955 
L 276.246505 -381.414534 
L 278.665322 -383.987113 
L 312.209678 -383.987113 
L 312.209678 -383.987113 
L 314.628495 -381.414534 
L 316.758266 -378.841955 
L 318.524897 -376.269376 
L 319.907216 -373.696797 
L 320.929216 -371.124218 
L 321.641746 -368.551639 
L 322.101892 -365.979059 
L 322.359361 -363.40648 
L 322.455955 -360.833901 
L 322.438019 -358.261322 
L 322.375307 -355.688743 
L 322.376288 -353.116164 
L 322.591127 -350.543585 
L 323.198758 -347.971006 
L 324.38079 -345.398427 
L 326.289303 -342.825848 
L 329.016166 -340.253269 
L 332.568867 -337.68069 
L 336.854629 -335.10811 
L 341.673137 -332.535531 
L 346.719508 -329.962952 
L 351.601711 -327.390373 
L 355.87739 -324.817794 
L 359.11146 -322.245215 
L 360.947949 -319.672636 
L 361.1805 -317.100057 
L 359.800682 -314.527478 
L 357.006057 -311.954899 
L 353.161012 -309.38232 
L 348.718959 -306.809741 
L 344.127905 -304.237161 
L 339.746788 -301.664582 
L 335.79524 -299.092003 
L 332.34682 -296.519424 
L 329.360771 -293.946845 
L 326.735718 -291.374266 
L 324.364307 -288.801687 
L 322.171202 -286.229108 
L 320.12586 -283.656529 
L 318.232164 -281.08395 
L 316.505145 -278.511371 
L 314.947958 -275.938791 
L 313.539624 -273.366212 
L 312.237674 -270.793633 
L 310.992796 -268.221054 
L 309.767869 -265.648475 
L 308.55278 -263.075896 
L 307.36894 -260.503317 
L 306.261982 -257.930738 
L 305.285778 -255.358159 
L 304.483948 -252.78558 
L 303.875651 -250.213001 
L 303.450394 -247.640422 
L 303.172959 -245.067842 
L 302.995627 -242.495263 
L 302.872325 -239.922684 
L 302.769082 -237.350105 
L 302.667332 -234.777526 
L 302.559946 -232.204947 
L 302.443039 -229.632368 
L 302.308126 -227.059789 
L 302.138596 -224.48721 
L 301.912283 -221.914631 
L 301.609084 -219.342052 
L 301.22043 -216.769472 
L 300.756606 -214.196893 
L 300.248646 -211.624314 
L 299.74344 -209.051735 
L 299.293009 -206.479156 
L 298.94095 -203.906577 
L 298.710169 -201.333998 
L 298.595816 -198.761419 
L 298.565887 -196.18884 
L 298.569531 -193.616261 
L 298.550693 -191.043682 
L 298.462933 -188.471103 
L 298.281016 -185.898523 
L 298.006121 -183.325944 
L 297.663842 -180.753365 
L 297.296567 -178.180786 
L 296.953284 -175.608207 
L 296.679986 -173.035628 
L 296.512714 -170.463049 
L 296.473713 -167.89047 
L 296.57 -165.317891 
L 296.793388 -162.745312 
L 297.121549 -160.172733 
L 297.520458 -157.600154 
L 297.94881 -155.027574 
L 298.364433 -152.454995 
L 298.731492 -149.882416 
L 299.026272 -147.309837 
L 299.239251 -144.737258 
L 299.372445 -142.164679 
L 299.433105 -139.5921 
L 299.426666 -137.019521 
L 299.352364 -134.446942 
L 299.203647 -131.874363 
L 298.973113 -129.301784 
z
" style="stroke: #464646; stroke-opacity: 0.7; stroke-width: 1.25"/>
    </defs>
    <g clip-path="url(#pd5eb58dab2)">
     <use xlink:href="#mad929d8041" x="0" y="425.049687" style="fill: #27d9d9; fill-opacity: 0.7; stroke: #464646; stroke-opacity: 0.7; stroke-width: 1.25"/>
    </g>
   </g>
   <g id="PolyCollection_3">
    <defs>
     <path id="m02bfd82260" d="M 472.5044 -70.117502 
L 447.0856 -70.117502 
L 445.475142 -73.287902 
L 443.794055 -76.458302 
L 442.052258 -79.628702 
L 440.259356 -82.799102 
L 438.424489 -85.969502 
L 436.556408 -89.139902 
L 434.663806 -92.310302 
L 432.755838 -95.480703 
L 430.842749 -98.651103 
L 428.936446 -101.821503 
L 427.050819 -104.991903 
L 425.201663 -108.162303 
L 423.406099 -111.332703 
L 421.681508 -114.503103 
L 420.044157 -117.673503 
L 418.50777 -120.843904 
L 417.082402 -124.014304 
L 415.773941 -127.184704 
L 414.584452 -130.355104 
L 413.513403 -133.525504 
L 412.559602 -136.695904 
L 411.723444 -139.866304 
L 411.008999 -143.036704 
L 410.425384 -146.207104 
L 409.987049 -149.377505 
L 409.712772 -152.547905 
L 409.623442 -155.718305 
L 409.738992 -158.888705 
L 410.075014 -162.059105 
L 410.639672 -165.229505 
L 411.431484 -168.399905 
L 412.438347 -171.570305 
L 413.637968 -174.740705 
L 414.999574 -177.911106 
L 416.486582 -181.081506 
L 418.059768 -184.251906 
L 419.680462 -187.422306 
L 421.313337 -190.592706 
L 422.928526 -193.763106 
L 424.502907 -196.933506 
L 426.020574 -200.103906 
L 427.472581 -203.274307 
L 428.856091 -206.444707 
L 430.173074 -209.615107 
L 431.428675 -212.785507 
L 432.629342 -215.955907 
L 433.780812 -219.126307 
L 434.88607 -222.296707 
L 435.943426 -225.467107 
L 436.944917 -228.637507 
L 437.875246 -231.807908 
L 438.711487 -234.978308 
L 439.423706 -238.148708 
L 439.976589 -241.319108 
L 440.332001 -244.489508 
L 440.452282 -247.659908 
L 440.303955 -250.830308 
L 439.861414 -254.000708 
L 439.110122 -257.171108 
L 438.048872 -260.341509 
L 436.690743 -263.511909 
L 435.062548 -266.682309 
L 433.202731 -269.852709 
L 431.157919 -273.023109 
L 428.978513 -276.193509 
L 426.713894 -279.363909 
L 424.407923 -282.534309 
L 422.095395 -285.70471 
L 419.800063 -288.87511 
L 417.534566 -292.04551 
L 415.302347 -295.21591 
L 413.101265 -298.38631 
L 410.928301 -301.55671 
L 408.784458 -304.72711 
L 406.6789 -307.89751 
L 404.631403 -311.06791 
L 402.672469 -314.238311 
L 400.840891 -317.408711 
L 399.179056 -320.579111 
L 397.726775 -323.749511 
L 396.514837 -326.919911 
L 395.559629 -330.090311 
L 394.860101 -333.260711 
L 394.397965 -336.431111 
L 394.141417 -339.601511 
L 394.052 -342.771912 
L 394.093488 -345.942312 
L 394.241226 -349.112712 
L 394.490102 -352.283112 
L 394.85948 -355.453512 
L 395.393904 -358.623912 
L 396.159129 -361.794312 
L 397.233861 -364.964712 
L 398.698427 -368.135113 
L 400.622136 -371.305513 
L 403.051382 -374.475913 
L 406.000384 -377.646313 
L 409.446019 -380.816713 
L 413.327491 -383.987113 
L 506.262509 -383.987113 
L 506.262509 -383.987113 
L 510.143981 -380.816713 
L 513.589616 -377.646313 
L 516.538618 -374.475913 
L 518.967864 -371.305513 
L 520.891573 -368.135113 
L 522.356139 -364.964712 
L 523.430871 -361.794312 
L 524.196096 -358.623912 
L 524.73052 -355.453512 
L 525.099898 -352.283112 
L 525.348774 -349.112712 
L 525.496512 -345.942312 
L 525.538 -342.771912 
L 525.448583 -339.601511 
L 525.192035 -336.431111 
L 524.729899 -333.260711 
L 524.030371 -330.090311 
L 523.075163 -326.919911 
L 521.863225 -323.749511 
L 520.410944 -320.579111 
L 518.749109 -317.408711 
L 516.917531 -314.238311 
L 514.958597 -311.06791 
L 512.9111 -307.89751 
L 510.805542 -304.72711 
L 508.661699 -301.55671 
L 506.488735 -298.38631 
L 504.287653 -295.21591 
L 502.055434 -292.04551 
L 499.789937 -288.87511 
L 497.494605 -285.70471 
L 495.182077 -282.534309 
L 492.876106 -279.363909 
L 490.611487 -276.193509 
L 488.432081 -273.023109 
L 486.387269 -269.852709 
L 484.527452 -266.682309 
L 482.899257 -263.511909 
L 481.541128 -260.341509 
L 480.479878 -257.171108 
L 479.728586 -254.000708 
L 479.286045 -250.830308 
L 479.137718 -247.659908 
L 479.257999 -244.489508 
L 479.613411 -241.319108 
L 480.166294 -238.148708 
L 480.878513 -234.978308 
L 481.714754 -231.807908 
L 482.645083 -228.637507 
L 483.646574 -225.467107 
L 484.70393 -222.296707 
L 485.809188 -219.126307 
L 486.960658 -215.955907 
L 488.161325 -212.785507 
L 489.416926 -209.615107 
L 490.733909 -206.444707 
L 492.117419 -203.274307 
L 493.569426 -200.103906 
L 495.087093 -196.933506 
L 496.661474 -193.763106 
L 498.276663 -190.592706 
L 499.909538 -187.422306 
L 501.530232 -184.251906 
L 503.103418 -181.081506 
L 504.590426 -177.911106 
L 505.952032 -174.740705 
L 507.151653 -171.570305 
L 508.158516 -168.399905 
L 508.950328 -165.229505 
L 509.514986 -162.059105 
L 509.851008 -158.888705 
L 509.966558 -155.718305 
L 509.877228 -152.547905 
L 509.602951 -149.377505 
L 509.164616 -146.207104 
L 508.581001 -143.036704 
L 507.866556 -139.866304 
L 507.030398 -136.695904 
L 506.076597 -133.525504 
L 505.005548 -130.355104 
L 503.816059 -127.184704 
L 502.507598 -124.014304 
L 501.08223 -120.843904 
L 499.545843 -117.673503 
L 497.908492 -114.503103 
L 496.183901 -111.332703 
L 494.388337 -108.162303 
L 492.539181 -104.991903 
L 490.653554 -101.821503 
L 488.747251 -98.651103 
L 486.834162 -95.480703 
L 484.926194 -92.310302 
L 483.033592 -89.139902 
L 481.165511 -85.969502 
L 479.330644 -82.799102 
L 477.537742 -79.628702 
L 475.795945 -76.458302 
L 474.114858 -73.287902 
L 472.5044 -70.117502 
z
" style="stroke: #464646; stroke-opacity: 0.7; stroke-width: 1.25"/>
    </defs>
    <g clip-path="url(#pd5eb58dab2)">
     <use xlink:href="#m02bfd82260" x="0" y="425.049687" style="fill: #2a23c6; fill-opacity: 0.7; stroke: #464646; stroke-opacity: 0.7; stroke-width: 1.25"/>
    </g>
   </g>
   <g id="PolyCollection_4">
    <defs>
     <path id="m95ec718f9b" d="M 626.421275 -39.491875 
L 621.883725 -39.491875 
L 621.914001 -42.971625 
L 622.024046 -46.451375 
L 622.180992 -49.931125 
L 622.338613 -53.410875 
L 622.443579 -56.890624 
L 622.442869 -60.370374 
L 622.291386 -63.850124 
L 621.959048 -67.329874 
L 621.436768 -70.809624 
L 620.740551 -74.289374 
L 619.91266 -77.769124 
L 619.018796 -81.248874 
L 618.14079 -84.728623 
L 617.365411 -88.208373 
L 616.771226 -91.688123 
L 616.416289 -95.167873 
L 616.329434 -98.647623 
L 616.506918 -102.127373 
L 616.914618 -105.607123 
L 617.494511 -109.086873 
L 618.173396 -112.566622 
L 618.871906 -116.046372 
L 619.512529 -119.526122 
L 620.026121 -123.005872 
L 620.356859 -126.485622 
L 620.465596 -129.965372 
L 620.33141 -133.445122 
L 619.951088 -136.924872 
L 619.33658 -140.404622 
L 618.511056 -143.884371 
L 617.504724 -147.364121 
L 616.351685 -150.843871 
L 615.088471 -154.323621 
L 613.753885 -157.803371 
L 612.388715 -161.283121 
L 611.033668 -164.762871 
L 609.724793 -168.242621 
L 608.487497 -171.72237 
L 607.332108 -175.20212 
L 606.254588 -178.68187 
L 605.244609 -182.16162 
L 604.300041 -185.64137 
L 603.443151 -189.12112 
L 602.731474 -192.60087 
L 602.256818 -196.08062 
L 602.129487 -199.560369 
L 602.450326 -203.040119 
L 603.278168 -206.519869 
L 604.602667 -209.999619 
L 606.331145 -213.479369 
L 608.293712 -216.959119 
L 610.265372 -220.438869 
L 611.999298 -223.918619 
L 613.263357 -227.398369 
L 613.87235 -230.878118 
L 613.710452 -234.357868 
L 612.74069 -237.837618 
L 611.00042 -241.317368 
L 608.58356 -244.797118 
L 605.612507 -248.276868 
L 602.205369 -251.756618 
L 598.446905 -255.236368 
L 594.373047 -258.716117 
L 589.977357 -262.195867 
L 585.242468 -265.675617 
L 580.190997 -269.155367 
L 574.941365 -272.635117 
L 569.748022 -276.114867 
L 565.006327 -279.594617 
L 561.2111 -283.074367 
L 558.872611 -286.554116 
L 558.4095 -290.033866 
L 560.048371 -293.513616 
L 563.760075 -296.993366 
L 569.252157 -300.473116 
L 576.019587 -303.952866 
L 583.438364 -307.432616 
L 590.875308 -310.912366 
L 597.785853 -314.392116 
L 603.778997 -317.871865 
L 608.640966 -321.351615 
L 612.3215 -324.831365 
L 614.895156 -328.311115 
L 616.51294 -331.790865 
L 617.357611 -335.270615 
L 617.61084 -338.750365 
L 617.434588 -342.230115 
L 616.964409 -345.709864 
L 616.310021 -349.189614 
L 615.558727 -352.669364 
L 614.779108 -356.149114 
L 614.024666 -359.628864 
L 613.338304 -363.108614 
L 612.758125 -366.588364 
L 612.323427 -370.068114 
L 612.07822 -373.547863 
L 612.069475 -377.027613 
L 612.339049 -380.507363 
L 612.911269 -383.987113 
L 635.393731 -383.987113 
L 635.393731 -383.987113 
L 635.965951 -380.507363 
L 636.235525 -377.027613 
L 636.22678 -373.547863 
L 635.981573 -370.068114 
L 635.546875 -366.588364 
L 634.966696 -363.108614 
L 634.280334 -359.628864 
L 633.525892 -356.149114 
L 632.746273 -352.669364 
L 631.994979 -349.189614 
L 631.340591 -345.709864 
L 630.870412 -342.230115 
L 630.69416 -338.750365 
L 630.947389 -335.270615 
L 631.79206 -331.790865 
L 633.409844 -328.311115 
L 635.9835 -324.831365 
L 639.664034 -321.351615 
L 644.526003 -317.871865 
L 650.519147 -314.392116 
L 657.429692 -310.912366 
L 664.866636 -307.432616 
L 672.285413 -303.952866 
L 679.052843 -300.473116 
L 684.544925 -296.993366 
L 688.256629 -293.513616 
L 689.8955 -290.033866 
L 689.432389 -286.554116 
L 687.0939 -283.074367 
L 683.298673 -279.594617 
L 678.556978 -276.114867 
L 673.363635 -272.635117 
L 668.114003 -269.155367 
L 663.062532 -265.675617 
L 658.327643 -262.195867 
L 653.931953 -258.716117 
L 649.858095 -255.236368 
L 646.099631 -251.756618 
L 642.692493 -248.276868 
L 639.72144 -244.797118 
L 637.30458 -241.317368 
L 635.56431 -237.837618 
L 634.594548 -234.357868 
L 634.43265 -230.878118 
L 635.041643 -227.398369 
L 636.305702 -223.918619 
L 638.039628 -220.438869 
L 640.011288 -216.959119 
L 641.973855 -213.479369 
L 643.702333 -209.999619 
L 645.026832 -206.519869 
L 645.854674 -203.040119 
L 646.175513 -199.560369 
L 646.048182 -196.08062 
L 645.573526 -192.60087 
L 644.861849 -189.12112 
L 644.004959 -185.64137 
L 643.060391 -182.16162 
L 642.050412 -178.68187 
L 640.972892 -175.20212 
L 639.817503 -171.72237 
L 638.580207 -168.242621 
L 637.271332 -164.762871 
L 635.916285 -161.283121 
L 634.551115 -157.803371 
L 633.216529 -154.323621 
L 631.953315 -150.843871 
L 630.800276 -147.364121 
L 629.793944 -143.884371 
L 628.96842 -140.404622 
L 628.353912 -136.924872 
L 627.97359 -133.445122 
L 627.839404 -129.965372 
L 627.948141 -126.485622 
L 628.278879 -123.005872 
L 628.792471 -119.526122 
L 629.433094 -116.046372 
L 630.131604 -112.566622 
L 630.810489 -109.086873 
L 631.390382 -105.607123 
L 631.798082 -102.127373 
L 631.975566 -98.647623 
L 631.888711 -95.167873 
L 631.533774 -91.688123 
L 630.939589 -88.208373 
L 630.16421 -84.728623 
L 629.286204 -81.248874 
L 628.39234 -77.769124 
L 627.564449 -74.289374 
L 626.868232 -70.809624 
L 626.345952 -67.329874 
L 626.013614 -63.850124 
L 625.862131 -60.370374 
L 625.861421 -56.890624 
L 625.966387 -53.410875 
L 626.124008 -49.931125 
L 626.280954 -46.451375 
L 626.390999 -42.971625 
L 626.421275 -39.491875 
z
" style="stroke: #464646; stroke-opacity: 0.7; stroke-width: 1.25"/>
    </defs>
    <g clip-path="url(#pd5eb58dab2)">
     <use xlink:href="#m95ec718f9b" x="0" y="425.049687" style="fill: #df55c7; fill-opacity: 0.7; stroke: #464646; stroke-opacity: 0.7; stroke-width: 1.25"/>
    </g>
   </g>
   <g id="line2d_7">
    <path d="M 131.08 225.023032 
L 131.08 41.062574 
" clip-path="url(#pd5eb58dab2)" style="fill: none; stroke: #464646; stroke-width: 1.875; stroke-linecap: round"/>
   </g>
   <g id="line2d_8">
    <path d="M 131.08 117.454393 
L 131.08 41.062574 
" clip-path="url(#pd5eb58dab2)" style="fill: none; stroke: #464646; stroke-width: 5.625; stroke-linecap: round"/>
   </g>
   <g id="line2d_9">
    <path d="M 131.08 41.062574 
" clip-path="url(#pd5eb58dab2)" style="fill: none; stroke: #464646; stroke-width: 1.5; stroke-linecap: round"/>
    <defs>
     <path id="me14ae6accf" d="M 2.34375 0 
L -2.34375 -0 
" style="stroke: #ffffff; stroke-width: 1.125"/>
    </defs>
    <g clip-path="url(#pd5eb58dab2)">
     <use xlink:href="#me14ae6accf" x="131.08" y="41.062574" style="fill: #ffffff; stroke: #ffffff; stroke-width: 1.125"/>
    </g>
   </g>
   <g id="line2d_10">
    <path d="M 295.4375 200.977264 
L 295.4375 41.062574 
" clip-path="url(#pd5eb58dab2)" style="fill: none; stroke: #464646; stroke-width: 1.875; stroke-linecap: round"/>
   </g>
   <g id="line2d_11">
    <path d="M 295.4375 132.181565 
L 295.4375 85.648871 
" clip-path="url(#pd5eb58dab2)" style="fill: none; stroke: #464646; stroke-width: 5.625; stroke-linecap: round"/>
   </g>
   <g id="line2d_12">
    <path d="M 295.4375 107.584605 
" clip-path="url(#pd5eb58dab2)" style="fill: none; stroke: #464646; stroke-width: 1.5; stroke-linecap: round"/>
    <g clip-path="url(#pd5eb58dab2)">
     <use xlink:href="#me14ae6accf" x="295.4375" y="107.584605" style="fill: #ffffff; stroke: #ffffff; stroke-width: 1.125"/>
    </g>
   </g>
   <g id="line2d_13">
    <path d="M 459.795 354.932186 
L 459.795 41.062574 
" clip-path="url(#pd5eb58dab2)" style="fill: none; stroke: #464646; stroke-width: 1.875; stroke-linecap: round"/>
   </g>
   <g id="line2d_14">
    <path d="M 459.795 261.789286 
L 459.795 88.189523 
" clip-path="url(#pd5eb58dab2)" style="fill: none; stroke: #464646; stroke-width: 5.625; stroke-linecap: round"/>
   </g>
   <g id="line2d_15">
    <path d="M 459.795 141.586285 
" clip-path="url(#pd5eb58dab2)" style="fill: none; stroke: #464646; stroke-width: 1.5; stroke-linecap: round"/>
    <g clip-path="url(#pd5eb58dab2)">
     <use xlink:href="#me14ae6accf" x="459.795" y="141.586285" style="fill: #ffffff; stroke: #ffffff; stroke-width: 1.125"/>
    </g>
   </g>
   <g id="line2d_16">
    <path d="M 624.1525 333.780178 
L 624.1525 41.062574 
" clip-path="url(#pd5eb58dab2)" style="fill: none; stroke: #464646; stroke-width: 1.875; stroke-linecap: round"/>
   </g>
   <g id="line2d_17">
    <path d="M 624.1525 218.959915 
L 624.1525 132.319363 
" clip-path="url(#pd5eb58dab2)" style="fill: none; stroke: #464646; stroke-width: 5.625; stroke-linecap: round"/>
   </g>
   <g id="line2d_18">
    <path d="M 624.1525 139.967157 
" clip-path="url(#pd5eb58dab2)" style="fill: none; stroke: #464646; stroke-width: 1.5; stroke-linecap: round"/>
    <g clip-path="url(#pd5eb58dab2)">
     <use xlink:href="#me14ae6accf" x="624.1525" y="139.967157" style="fill: #ffffff; stroke: #ffffff; stroke-width: 1.125"/>
    </g>
   </g>
   <g id="patch_3">
    <path d="M 48.90125 385.557812 
L 48.90125 23.837812 
" style="fill: none; stroke: #cccccc; stroke-width: 0.8; stroke-linejoin: miter; stroke-linecap: square"/>
   </g>
   <g id="patch_4">
    <path d="M 706.33125 385.557812 
L 706.33125 23.837812 
" style="fill: none; stroke: #cccccc; stroke-width: 0.8; stroke-linejoin: miter; stroke-linecap: square"/>
   </g>
   <g id="patch_5">
    <path d="M 48.90125 385.557812 
L 706.33125 385.557812 
" style="fill: none; stroke: #cccccc; stroke-width: 0.8; stroke-linejoin: miter; stroke-linecap: square"/>
   </g>
   <g id="patch_6">
    <path d="M 48.90125 23.837812 
L 706.33125 23.837812 
" style="fill: none; stroke: #cccccc; stroke-width: 0.8; stroke-linejoin: miter; stroke-linecap: square"/>
   </g>
   <g id="text_13">
    <!-- PSC Distribution by Experiment -->
    <g style="fill: #262626" transform="translate(267.520469 17.837812)scale(0.14 -0.14)">
     <defs>
      <path id="DejaVuSans-44" d="M 1259 4147 
L 1259 519 
L 2022 519 
Q 2988 519 3436 956 
Q 3884 1394 3884 2338 
Q 3884 3275 3436 3711 
Q 2988 4147 2022 4147 
L 1259 4147 
z
M 628 4666 
L 1925 4666 
Q 3281 4666 3915 4102 
Q 4550 3538 4550 2338 
Q 4550 1131 3912 565 
Q 3275 0 1925 0 
L 628 0 
L 628 4666 
z
" transform="scale(0.015625)"/>
      <path id="DejaVuSans-62" d="M 3116 1747 
Q 3116 2381 2855 2742 
Q 2594 3103 2138 3103 
Q 1681 3103 1420 2742 
Q 1159 2381 1159 1747 
Q 1159 1113 1420 752 
Q 1681 391 2138 391 
Q 2594 391 2855 752 
Q 3116 1113 3116 1747 
z
M 1159 2969 
Q 1341 3281 1617 3432 
Q 1894 3584 2278 3584 
Q 2916 3584 3314 3078 
Q 3713 2572 3713 1747 
Q 3713 922 3314 415 
Q 2916 -91 2278 -91 
Q 1894 -91 1617 61 
Q 1341 213 1159 525 
L 1159 0 
L 581 0 
L 581 4863 
L 1159 4863 
L 1159 2969 
z
" transform="scale(0.015625)"/>
      <path id="DejaVuSans-79" d="M 2059 -325 
Q 1816 -950 1584 -1140 
Q 1353 -1331 966 -1331 
L 506 -1331 
L 506 -850 
L 844 -850 
Q 1081 -850 1212 -737 
Q 1344 -625 1503 -206 
L 1606 56 
L 191 3500 
L 800 3500 
L 1894 763 
L 2988 3500 
L 3597 3500 
L 2059 -325 
z
" transform="scale(0.015625)"/>
     </defs>
     <use xlink:href="#DejaVuSans-50"/>
     <use xlink:href="#DejaVuSans-53" x="60.302734"/>
     <use xlink:href="#DejaVuSans-43" x="123.779297"/>
     <use xlink:href="#DejaVuSans-20" x="193.603516"/>
     <use xlink:href="#DejaVuSans-44" x="225.390625"/>
     <use xlink:href="#DejaVuSans-69" x="302.392578"/>
     <use xlink:href="#DejaVuSans-73" x="330.175781"/>
     <use xlink:href="#DejaVuSans-74" x="382.275391"/>
     <use xlink:href="#DejaVuSans-72" x="421.484375"/>
     <use xlink:href="#DejaVuSans-69" x="462.597656"/>
     <use xlink:href="#DejaVuSans-62" x="490.380859"/>
     <use xlink:href="#DejaVuSans-75" x="553.857422"/>
     <use xlink:href="#DejaVuSans-74" x="617.236328"/>
     <use xlink:href="#DejaVuSans-69" x="656.445312"/>
     <use xlink:href="#DejaVuSans-6f" x="684.228516"/>
     <use xlink:href="#DejaVuSans-6e" x="745.410156"/>
     <use xlink:href="#DejaVuSans-20" x="808.789062"/>
     <use xlink:href="#DejaVuSans-62" x="840.576172"/>
     <use xlink:href="#DejaVuSans-79" x="904.052734"/>
     <use xlink:href="#DejaVuSans-20" x="963.232422"/>
     <use xlink:href="#DejaVuSans-45" x="995.019531"/>
     <use xlink:href="#DejaVuSans-78" x="1058.203125"/>
     <use xlink:href="#DejaVuSans-70" x="1117.382812"/>
     <use xlink:href="#DejaVuSans-65" x="1180.859375"/>
     <use xlink:href="#DejaVuSans-72" x="1242.382812"/>
     <use xlink:href="#DejaVuSans-69" x="1283.496094"/>
     <use xlink:href="#DejaVuSans-6d" x="1311.279297"/>
     <use xlink:href="#DejaVuSans-65" x="1408.691406"/>
     <use xlink:href="#DejaVuSans-6e" x="1470.214844"/>
     <use xlink:href="#DejaVuSans-74" x="1533.59375"/>
    </g>
   </g>
  </g>
 </g>
 <defs>
  <clipPath id="pd5eb58dab2">
   <rect x="48.90125" y="23.837812" width="657.43" height="361.72"/>
  </clipPath>
 </defs>
</svg>
